<svg xmlns="http://www.w3.org/2000/svg" xml:space="preserve" width="100" height="100" style="shape-rendering:geometricPrecision;text-rendering:geometricPrecision;image-rendering:optimizeQuality;fill-rule:evenodd;clip-rule:evenodd" viewBox="0 0 19.257 19.269"><defs><style>.str1,.str2{stroke:#5b5b5b;stroke-width:.190852}.str1{stroke-linejoin:round}.fil0{fill:none}.fil1{fill:#5b5b5b}.fil2{fill:#fefefe}</style></defs><g id="Vrstva_x0020_1"><circle class="fil0" cx="9.623" cy="9.634" r="9.539" style="stroke:#5b5b5b;stroke-width:.190852;stroke-dasharray:1.180937 1.180937"/><path class="fil1 str1" d="M7.563 4.546v8.325c-.748.491-1.374 0-1.374 0V4.546l.687-1.775.687 1.775z"/><path class="fil0 str1" d="M8.936 6.415v8.325c-.747.491-1.373 0-1.373 0V6.415L8.25 4.64l.686 1.774z"/><path class="fil1 str1" d="M10.31 6.25v8.325c-.748.491-1.374 0-1.374 0V6.25l.687-1.775.687 1.775zM11.683 7.807v8.325c-.747.491-1.373 0-1.373 0V7.807l.686-1.774.687 1.774z"/><path class="fil0 str1" d="M13.057 6.957v8.326c-.748.491-1.374 0-1.374 0V6.957l.687-1.774.687 1.774z"/><g id="_341465080"><path id="_335157496" class="fil2 str1" d="m12.37 5.183-.687 1.774s.688.267 1.374 0l-.687-1.774z"/><path id="_333701040" class="fil0 str2" d="M12.108 5.86s.259.21.524 0"/></g><g id="_335103536"><path id="_339687808" class="fil2 str1" d="m10.996 6.033-.686 1.774s.688.266 1.373 0l-.687-1.774z"/><path id="_343351216" class="fil0 str2" d="M10.735 6.709s.258.21.523 0"/></g><g id="_342427064"><path id="_334683904" class="fil2 str1" d="M9.623 4.475 8.936 6.25s.688.266 1.374 0l-.687-1.775z"/><path id="_333703392" class="fil0 str2" d="M9.361 5.151s.259.212.524 0"/></g><g id="_339943008"><path id="_343113296" class="fil2 str1" d="m8.25 4.64-.687 1.775s.688.266 1.373 0L8.25 4.64z"/><path id="_335155704" class="fil0 str2" d="M7.988 5.317s.259.21.523 0"/></g><g id="_507484512"><path id="_339748176" class="fil2 str1" d="M6.876 2.771 6.19 4.546s.688.265 1.374 0L6.876 2.77z"/><path id="_341472416" class="fil0 str2" d="M6.614 3.447s.259.212.524 0"/></g></g></svg>