<svg xmlns="http://www.w3.org/2000/svg" xml:space="preserve" width="100" height="100" style="shape-rendering:geometricPrecision;text-rendering:geometricPrecision;image-rendering:optimizeQuality;fill-rule:evenodd;clip-rule:evenodd" viewBox="0 0 14.371 14.379"><defs><style>.str1{stroke:#5b5b5b;stroke-width:.336305}.fil1,.fil2{fill:none;fill-rule:nonzero}.fil2{fill:#5b5b5b}</style></defs><g id="Vrstva_x0020_1"><circle cx="7.181" cy="7.19" r="7.118" style="fill:none;stroke:#5b5b5b;stroke-width:.142425;stroke-dasharray:.881288 .881288"/><path class="fil1 str1" d="M3.086 5.892v-2.26c0-.417.38-.754.847-.754h5.353c.468 0 .847.337.847.753v2.26c0 .417-.38.754-.847.754H6.08l-2.31 1.82.724-1.82h-.562c-.468 0-.847-.337-.847-.753z"/><path class="fil1 str1" d="M11.502 9.505V7.823c0-.31-.292-.56-.652-.56H6.728c-.36 0-.652.25-.652.56v1.682c0 .31.292.56.652.56h2.468l1.779 1.355-.558-1.355h.433c.36 0 .652-.25.652-.56z"/><path class="fil2" d="m5.49 4.56-.001-.132v-.346a.703.703 0 0 1 .136-.01c.055 0 .1.003.136.01v1.216a.739.739 0 0 1-.136.01.735.735 0 0 1-.136-.01v-.383l.001-.131-.09.001h-.22l-.09-.001.002.131v.383a.727.727 0 0 1-.137.01.698.698 0 0 1-.136-.01V4.082a.683.683 0 0 1 .136-.01c.055 0 .101.003.137.01v.346l-.002.131.09-.002h.22l.09.002z"/><path id="1" class="fil2" d="M6.697 4.94h-.472a.233.233 0 0 0 .043.133c.025.031.069.047.132.047a.593.593 0 0 0 .224-.055.277.277 0 0 1 .073.158.59.59 0 0 1-.54.063.287.287 0 0 1-.122-.106.638.638 0 0 1-.078-.332c0-.136.032-.247.097-.333a.333.333 0 0 1 .283-.13c.124 0 .218.035.284.106.066.07.099.16.099.271 0 .062-.008.121-.023.178zm-.223-.204a.206.206 0 0 0-.03-.117c-.02-.03-.051-.045-.093-.045s-.073.014-.093.044a.289.289 0 0 0-.035.139h.251v-.021z"/><path id="12" class="fil2" d="M7.227 5.104h.052a.378.378 0 0 1 .016.185c-.071.012-.14.018-.205.018-.065 0-.114-.02-.147-.057-.034-.038-.05-.099-.05-.182V4.001l.012-.013h.103c.053 0 .09.012.112.037.021.024.033.065.033.123v.872c0 .056.024.084.074.084z"/><path id="123" class="fil2" d="M7.78 5.104h.052a.378.378 0 0 1 .016.185c-.07.012-.14.018-.204.018-.066 0-.115-.02-.148-.057-.033-.038-.05-.099-.05-.182V4.001l.013-.013h.103c.052 0 .089.012.111.037.022.024.033.065.033.123v.872c0 .056.025.084.075.084z"/><path id="1234" class="fil2" d="M8.635 4.488c.085.086.128.207.128.366 0 .158-.043.28-.128.365a.377.377 0 0 1-.28.106.377.377 0 0 1-.279-.106c-.085-.085-.128-.207-.128-.365 0-.159.043-.28.128-.366a.381.381 0 0 1 .28-.103c.116 0 .209.034.279.103zm-.387.166a.579.579 0 0 0-.028.2c0 .087.01.154.028.2.018.048.054.071.107.071.054 0 .09-.023.108-.07a.566.566 0 0 0 .028-.2.575.575 0 0 0-.028-.201c-.018-.048-.054-.072-.108-.072-.053 0-.089.024-.107.072z"/><path class="fil2" d="m8.539 8.501-.002-.131v-.346a.703.703 0 0 1 .136-.01c.055 0 .1.003.137.01V9.24a.739.739 0 0 1-.137.01.735.735 0 0 1-.136-.01v-.383l.002-.131-.09.001h-.22l-.09-.001.001.131v.383a.727.727 0 0 1-.137.01.698.698 0 0 1-.135-.01V8.024a.683.683 0 0 1 .135-.01c.056 0 .102.003.137.01v.346L8.14 8.5l.09-.002h.22l.09.002z"/><path id="1" class="fil2" d="M9.363 8.551v.689a.769.769 0 0 1-.265 0v-.598c0-.068-.028-.102-.084-.102H8.99a.399.399 0 0 1 0-.185c.06-.006.11-.009.151-.009h.036c.058 0 .104.019.137.056.033.036.05.086.05.15zm-.3-.352a.26.26 0 0 1 0-.2.276.276 0 0 1 .132-.026c.054 0 .095.009.125.027a.263.263 0 0 1 0 .199.256.256 0 0 1-.13.027.235.235 0 0 1-.126-.027z"/><path id="12" class="fil2" d="M9.635 8.871 9.6 8.083a.471.471 0 0 1 .282-.075l.016.02-.06.843a.336.336 0 0 1-.101.013.335.335 0 0 1-.1-.013zm-.027.157A.264.264 0 0 1 9.738 9c.051 0 .093.01.125.028.013.023.02.056.02.102a.206.206 0 0 1-.02.1.234.234 0 0 1-.126.03.244.244 0 0 1-.129-.03.206.206 0 0 1-.02-.1c0-.046.007-.08.02-.102z"/></g></svg>