<svg xmlns="http://www.w3.org/2000/svg" xml:space="preserve" width="100" height="100" style="shape-rendering:geometricPrecision;text-rendering:geometricPrecision;image-rendering:optimizeQuality;fill-rule:evenodd;clip-rule:evenodd" viewBox="0 0 19.006 19.018"><path d="M13.087 7.48c.72 2.809-1.003 2.696-1.003 2.696h-2.076s.182-1.584 1.566-1.725c.892-.091 1.259.065 1.513-.972zm-7.178 0c-.72 2.809 1.002 2.696 1.002 2.696h2.076S8.806 8.592 7.422 8.45c-.892-.091-1.26.065-1.513-.972zm3.852.988v2.394a.39.39 0 0 1 .13-.022h1.73c.216 0 .421.178.392.391l-.48 3.53c-.029.214-.14.427-.356.427H7.822c-.215 0-.327-.213-.356-.427l-.48-3.53c-.03-.213.176-.391.392-.391h1.73a.39.39 0 0 1 .13.022v-2.58l-.4.306-.184-.489-.517.226-.106-.809-.683-.09.204-.45-.5-.197.502-.655-.438-.572.462-.175-.2-.459.8-.106.099-.75.473.214.174-.443.612.469.616-.473.196.52.437-.19.096.731.761.1-.24.53.468.184-.443.578.448.583-.546.206.216.494-.74.098-.091.692-.51-.23-.206.525-.237-.182zM9.5 6.985a.798.798 0 1 1 0-1.596.798.798 0 0 1 0 1.596z" style="fill:#5b5b5b"/><circle cx="9.498" cy="9.509" r="9.415" style="fill:none;stroke:#5b5b5b;stroke-width:.188368;stroke-dasharray:1.165568 1.165568"/></svg>