<svg xmlns="http://www.w3.org/2000/svg" xml:space="preserve" width="100" height="100" style="shape-rendering:geometricPrecision;text-rendering:geometricPrecision;image-rendering:optimizeQuality;fill-rule:evenodd;clip-rule:evenodd" viewBox="0 0 11.049 11.055"><path d="M8.19 4.316C6.842 2.502 5.52 4.037 5.52 4.037s-1.322-1.535-2.668.28v.402h-.246V7.625h5.828V4.719H8.19v-.403zM3.714 7.042c.64-.386 1.141 0 1.141 0h-1.14zm1.626-.132s-.936-.952-2.11 0V4.415c1.132-1.313 2.109-.001 2.11 0V6.91zm1.986.132c-.64-.386-1.141 0-1.141 0h1.141zM5.702 6.91s.936-.952 2.11 0V4.415c-1.133-1.313-2.11-.001-2.11 0V6.91z" style="fill:#5b5b5b"/><circle cx="5.521" cy="5.528" r="5.473" style="fill:none;stroke:#5b5b5b;stroke-width:.109502;stroke-dasharray:.677568 .677568"/></svg>