<svg xmlns="http://www.w3.org/2000/svg" xml:space="preserve" width="100" height="100" style="shape-rendering:geometricPrecision;text-rendering:geometricPrecision;image-rendering:optimizeQuality;fill-rule:evenodd;clip-rule:evenodd" viewBox="0 0 10.488 10.494"><defs><style>.fil1{fill:#5b5b5b}.fil2{fill:#fefefe}</style></defs><g id="Vrstva_x0020_1"><circle cx="5.241" cy="5.247" r="5.195" style="fill:none;stroke:#5b5b5b;stroke-width:.103942;stroke-dasharray:.643164 .643164"/><g id="_146642184"><path id="_297904648" class="fil1" d="m7.988 3.491-.191.434h-.003v1.47l.106.037-.128.271.09 2.104-1.89-.011-.005-2.093-.09-.308s-.03-.414-.636-.466c-.606.052-.637.466-.637.466l-.09.308-.005 2.093-1.89.011.09-2.104-.127-.27.106-.038v-1.47h-.003l-.191-.434-.007-.146-.06-.156h.238l.013-.342-.126-.126.088-.034H7.841l.088.034-.125.126.012.342h.24l-.06.156-.008.146z"/><path id="_293378872" class="fil2" d="M3.031 5.703H4.09v.616H3.031z"/><path id="_146636192" class="fil1" d="M3.096 5.742h.928v.54h-.928z"/><path id="_458866016" class="fil2" d="M3.173 5.786h.775v.451h-.775z"/><path id="_295925192" class="fil2" d="M6.391 5.703H7.45v.616H6.391z"/><path id="_297902968" class="fil1" d="M6.457 5.742h.928v.54h-.928z"/><path id="_297903920" class="fil2" d="M6.534 5.786h.775v.451h-.775z"/><path id="_297897032" class="fil2" d="M2.85 3.314h4.802v.487H2.85z"/><path id="_297905208" class="fil1" d="M2.915 3.371h4.672v.373H2.915z"/><path id="_297902520" class="fil2" d="M3.008 3.444h.235v.235h-.235z"/><path id="_284310456" class="fil2" d="M3.479 3.444h.235v.235h-.235z"/><path id="_297905376" class="fil2" d="M3.949 3.444h.235v.235h-.235z"/><path id="_294098808" class="fil2" d="M4.42 3.444h.235v.235H4.42z"/><path id="_297905992" class="fil2" d="M4.891 3.444h.235v.235h-.235z"/><path id="_297905936" class="fil2" d="M5.362 3.444h.235v.235h-.235z"/><path id="_297905152" class="fil2" d="M5.832 3.444h.235v.235h-.235z"/><path id="_297902632" class="fil2" d="M6.303 3.444h.235v.235h-.235z"/><path id="_295723744" class="fil2" d="M6.774 3.444h.235v.235h-.235z"/><path id="_297904032" class="fil2" d="M7.245 3.444h.235v.235h-.235z"/><path id="_146641624" class="fil2" d="M3.002 2.58h.235v.235h-.235z"/><path id="_297901960" class="fil2" d="M3.473 2.58h.235v.235h-.235z"/><path id="_282222024" class="fil2" d="M3.944 2.58h.235v.235h-.235z"/><path id="_146640392" class="fil2" d="M4.414 2.58h.235v.235h-.235z"/><path id="_146639216" class="fil2" d="M4.885 2.58h.235v.235h-.235z"/><path id="_146634008" class="fil2" d="M5.356 2.58h.235v.235h-.235z"/><path id="_146621464" class="fil2" d="M5.827 2.58h.235v.235h-.235z"/><path id="_292518672" class="fil2" d="M6.297 2.58h.235v.235h-.235z"/><path id="_292518616" class="fil2" d="M6.768 2.58h.235v.235h-.235z"/><path id="_297903976" class="fil2" d="M7.239 2.58h.235v.235h-.235z"/></g></g></svg>