<svg xmlns="http://www.w3.org/2000/svg" xml:space="preserve" width="100" height="100" style="shape-rendering:geometricPrecision;text-rendering:geometricPrecision;image-rendering:optimizeQuality;fill-rule:evenodd;clip-rule:evenodd" viewBox="0 0 14.371 14.379"><defs><style>.str1{stroke:#5b5b5b;stroke-width:.336305}.fil1,.fil2{fill:none;fill-rule:nonzero}.fil2{fill:#5b5b5b}</style></defs><g id="Vrstva_x0020_1"><circle cx="7.181" cy="7.19" r="7.118" style="fill:none;stroke:#5b5b5b;stroke-width:.142425;stroke-dasharray:.881288 .881288"/><path class="fil1 str1" d="M11.502 5.892v-2.26c0-.417-.379-.754-.847-.754H5.302c-.467 0-.847.337-.847.753v2.26c0 .417.38.754.847.754h3.205l2.31 1.82-.724-1.82h.562c.468 0 .848-.337.848-.753z"/><path class="fil1 str1" d="M3.086 9.505V7.823c0-.31.292-.56.652-.56H7.86c.36 0 .653.25.653.56v1.682c0 .31-.292.56-.653.56H5.392L3.613 11.42l.558-1.355h-.433c-.36 0-.652-.25-.652-.56z"/><path class="fil2" d="M5.131 4.12c.188-.005.322-.007.404-.007a.5.5 0 0 1 .303.08c.073.055.11.135.11.243a.267.267 0 0 1-.157.246c.06.019.11.058.152.116a.323.323 0 0 1 .062.192c0 .118-.039.208-.116.269a.516.516 0 0 1-.326.09c-.088 0-.233-.002-.432-.007L5.12 5.33V4.132l.012-.012zm.411.678h-.156v.36c.04-.002.094-.003.16-.003.068 0 .115-.017.144-.052a.192.192 0 0 0 .043-.125.193.193 0 0 0-.045-.126c-.03-.036-.078-.054-.146-.054zm-.156-.491v.297h.137c.058 0 .099-.015.123-.044a.16.16 0 0 0 .037-.106c0-.097-.054-.146-.16-.146l-.137-.001z"/><path id="1" class="fil2" d="M6.815 4.529c.085.085.128.207.128.366 0 .158-.043.28-.128.365a.377.377 0 0 1-.28.105.377.377 0 0 1-.28-.105c-.085-.085-.127-.207-.127-.365 0-.159.042-.28.128-.366a.381.381 0 0 1 .28-.103c.115 0 .208.034.279.103zm-.388.165a.579.579 0 0 0-.027.202c0 .086.01.153.027.2.019.047.055.07.108.07.054 0 .09-.023.108-.07a.566.566 0 0 0 .027-.2.575.575 0 0 0-.027-.202c-.019-.047-.054-.07-.108-.07-.053 0-.09.023-.108.07z"/><path id="12" class="fil2" d="M7.866 4.75v.37a.31.31 0 0 0 .043.176.24.24 0 0 1-.156.057c-.057 0-.097-.014-.119-.041-.022-.027-.033-.069-.033-.125V4.8a.196.196 0 0 0-.018-.096c-.012-.02-.032-.03-.062-.03-.051 0-.1.023-.146.07v.596a.763.763 0 0 1-.265 0v-.886l.012-.013h.1c.073 0 .12.036.14.107a.396.396 0 0 1 .253-.11.22.22 0 0 1 .187.085.371.371 0 0 1 .064.228z"/><path id="123" class="fil2" d="M8.4 4.65v.64c0 .138-.022.24-.065.304-.043.065-.131.11-.264.136a.241.241 0 0 1-.073-.162.244.244 0 0 0 .11-.078c.02-.03.03-.076.03-.139v-.61c0-.068-.027-.102-.083-.102h-.041a.399.399 0 0 1 0-.185c.068-.006.123-.009.165-.009h.036c.058 0 .104.019.136.055a.217.217 0 0 1 .05.15zm-.304-.352a.264.264 0 0 1 0-.2.277.277 0 0 1 .13-.026c.055 0 .096.009.126.026a.26.26 0 0 1 0 .2.255.255 0 0 1-.13.026.235.235 0 0 1-.126-.026z"/><path id="1234" class="fil2" d="M9.252 4.529c.086.085.129.207.129.366 0 .158-.043.28-.129.365a.377.377 0 0 1-.279.105.377.377 0 0 1-.28-.105c-.085-.085-.127-.207-.127-.365 0-.159.042-.28.128-.366a.381.381 0 0 1 .279-.103c.116 0 .21.034.28.103zm-.387.165a.579.579 0 0 0-.027.202c0 .086.009.153.027.2.019.047.055.07.108.07s.09-.023.108-.07a.566.566 0 0 0 .027-.2.575.575 0 0 0-.027-.202c-.019-.047-.055-.07-.108-.07s-.09.023-.108.07z"/><path id="12345" class="fil2" d="M9.544 5.042V4.67a.306.306 0 0 0-.043-.175.228.228 0 0 1 .154-.057c.06 0 .1.014.121.041.022.027.033.068.033.123v.39c0 .043.006.075.018.095.012.02.033.03.062.03a.205.205 0 0 0 .144-.067v-.597a.752.752 0 0 1 .267 0v.633c0 .065.017.11.05.133a.215.215 0 0 1-.032.074.252.252 0 0 1-.051.06.22.22 0 0 1-.203-.125c-.09.085-.178.127-.264.127-.085 0-.15-.03-.192-.087a.371.371 0 0 1-.064-.226z"/><path id="123456" class="fil2" d="M10.473 4.575a.239.239 0 0 1 .032-.076.227.227 0 0 1 .05-.06c.105.01.178.063.217.16.045-.106.12-.159.224-.159a.48.48 0 0 1 .116.014.534.534 0 0 1-.066.248.365.365 0 0 0-.089-.016c-.063 0-.114.032-.153.096v.557a.769.769 0 0 1-.265 0v-.58c0-.09-.022-.15-.066-.184z"/><path class="fil2" d="M3.56 9.117a.294.294 0 0 1 .035-.113.3.3 0 0 1 .07-.09c.13.078.25.118.36.118.051 0 .09-.012.117-.037a.115.115 0 0 0 .04-.088c0-.06-.04-.107-.12-.142l-.21-.09c-.168-.073-.252-.181-.252-.325a.33.33 0 0 1 .123-.265.485.485 0 0 1 .323-.103c.133 0 .265.033.396.101a.307.307 0 0 1-.093.205.76.76 0 0 0-.32-.087.164.164 0 0 0-.112.034.104.104 0 0 0-.04.08c0 .047.037.087.11.119l.214.089a.493.493 0 0 1 .199.145c.047.06.07.128.07.204 0 .112-.04.204-.12.273-.08.07-.195.106-.344.106a.811.811 0 0 1-.23-.036.827.827 0 0 1-.217-.098z"/><path id="1" class="fil2" d="M5.376 9.101a.23.23 0 0 1-.033.077.242.242 0 0 1-.05.06.224.224 0 0 1-.186-.094.36.36 0 0 1-.251.107c-.092 0-.162-.028-.209-.082a.279.279 0 0 1-.07-.187c0-.101.034-.178.1-.23a.394.394 0 0 1 .25-.078c.04 0 .084.002.134.005V8.64c0-.078-.04-.117-.12-.117-.052 0-.14.019-.266.057a.322.322 0 0 1-.064-.185 1.123 1.123 0 0 1 .402-.078.34.34 0 0 1 .223.073c.06.05.09.126.09.229v.363c0 .056.017.095.05.12zm-.454-.048c.047 0 .093-.02.14-.059v-.147a2.53 2.53 0 0 0-.108-.002c-.08 0-.119.04-.119.119a.09.09 0 0 0 .024.063.083.083 0 0 0 .063.026z"/><path id="12" class="fil2" d="M5.874 9.03h.052a.378.378 0 0 1 .016.185c-.071.012-.14.018-.205.018-.065 0-.114-.02-.147-.057-.034-.038-.05-.099-.05-.182V7.927l.012-.013h.103c.053 0 .09.012.112.037.021.024.033.065.033.123v.872c0 .056.024.084.074.084z"/><path id="123" class="fil2" d="M6.091 8.927v-.372a.306.306 0 0 0-.042-.175.228.228 0 0 1 .153-.057c.06 0 .1.014.122.041.022.028.033.069.033.123v.39c0 .044.005.075.017.095.012.02.033.03.063.03a.205.205 0 0 0 .144-.066v-.598a.752.752 0 0 1 .267 0v.633c0 .065.016.11.05.134a.215.215 0 0 1-.032.073.252.252 0 0 1-.052.06.22.22 0 0 1-.203-.124c-.09.084-.178.126-.263.126-.086 0-.15-.029-.193-.086a.371.371 0 0 1-.064-.227z"/><path id="1234" class="fil2" d="M7.58 8.336a.438.438 0 0 1 0 .188l-.213-.003v.425c0 .056.026.084.079.084h.103c.014.043.021.08.021.114a.252.252 0 0 1-.007.07 1.707 1.707 0 0 1-.235.019c-.146 0-.219-.08-.219-.239v-.471l-.139.001a.364.364 0 0 1-.01-.094c0-.037.003-.068.01-.094l.14.002v-.109c0-.06.01-.1.031-.125.022-.023.058-.035.11-.035h.104l.012.012v.258l.214-.003z"/><path id="12345" class="fil2" d="m7.785 8.855-.035-.788a.471.471 0 0 1 .281-.075l.016.02-.06.843a.336.336 0 0 1-.101.013.335.335 0 0 1-.1-.013zm-.026.157a.264.264 0 0 1 .129-.028c.051 0 .093.01.125.028.013.023.02.056.02.102a.206.206 0 0 1-.02.1.234.234 0 0 1-.126.03.244.244 0 0 1-.128-.03.206.206 0 0 1-.02-.1c0-.046.007-.08.02-.102z"/></g></svg>