<svg xml:space="preserve" width="100" height="100" style="shape-rendering:geometricPrecision;text-rendering:geometricPrecision;image-rendering:optimizeQuality;fill-rule:evenodd;clip-rule:evenodd" viewBox="0 0 12.771 12.778" xmlns="http://www.w3.org/2000/svg"><path d="M7.638 8.972c-.526.074-.946-.193-.94-.596.008-.403.44-.79.965-.864a1.12 1.12 0 0 1 .456.026V4.584l-2.638.481v3.641c-.007.403-.44.79-.965.863-.526.074-.946-.192-.94-.595.008-.403.44-.79.966-.864.165-.023.32-.013.455.025V3.788l3.605-.592V8.09a.42.42 0 0 1 0 .02c-.007.402-.44.789-.964.863z" style="fill:#5b5b5b"/><circle cx="6.381" cy="6.389" r="6.326" style="fill:none;stroke:#5b5b5b;stroke-width:.126564;stroke-dasharray:.783146 .783146"/></svg>