<svg xmlns="http://www.w3.org/2000/svg" xml:space="preserve" width="100" height="100" style="shape-rendering:geometricPrecision;text-rendering:geometricPrecision;image-rendering:optimizeQuality;fill-rule:evenodd;clip-rule:evenodd" viewBox="0 0 17.096 17.107"><path d="M7.718 9.24H12.213V4.17H4.986v5.07h2.732zm-3.532 1.244h3.532v-.699h-3.29V3.6h8.231v6.186H9.382v.7H12.9v2.68h-.368v.342h-.521v-.343H4.948v.343h-.52v-.343h-.242v-2.68zm1.36 1.816a.597.597 0 1 1 0-1.194.597.597 0 0 1 0 1.194zm0-1.46a.864.864 0 1 1 0 1.727.864.864 0 0 1 0-1.727zm4.077 1.372h2.528v.38H9.623v-.38zm0-.635h2.528v.38H9.623v-.38zm0-.686h2.528v.38H9.623v-.38z" style="fill:#5b5b5b"/><circle cx="8.543" cy="8.553" r="8.468" style="fill:none;stroke:#5b5b5b;stroke-width:.169437;stroke-dasharray:1.048431 1.048431"/></svg>