<svg xmlns="http://www.w3.org/2000/svg" xml:space="preserve" width="100" height="100" style="shape-rendering:geometricPrecision;text-rendering:geometricPrecision;image-rendering:optimizeQuality;fill-rule:evenodd;clip-rule:evenodd" viewBox="0 0 8.068 8.073"><path d="M3.937 1.35h.18v.798a.636.636 0 0 1 .458.961l.33.826h.387v-.222h.132v.575h-.132v-.222h-.334l.562 1.41-.036.37.192.876-.408-.731-.335-.3-.901-2.2-.901 2.2-.336.3-.408.731.192-.875-.036-.372.562-1.409h-.334v.222h-.132v-.575h.132v.222h.387l.33-.826h.003a.635.635 0 0 1 .446-.96v-.798zm.096 1.655a.228.228 0 1 1 0-.455.228.228 0 0 1 0 .455zm0 .228a.456.456 0 1 0 0-.911.456.456 0 0 0 0 .911z" style="fill:#5b5b5b"/><circle cx="4.032" cy="4.037" r="3.996" style="fill:none;stroke:#5b5b5b;stroke-width:.0799619;stroke-dasharray:.494782 .494782"/></svg>