<svg xmlns="http://www.w3.org/2000/svg" xml:space="preserve" width="100" height="100" style="shape-rendering:geometricPrecision;text-rendering:geometricPrecision;image-rendering:optimizeQuality;fill-rule:evenodd;clip-rule:evenodd" viewBox="0 0 10.601 10.607"><defs><style>.str1{stroke:#5b5b5b;stroke-width:.248088}.fil1,.fil2{fill:none;fill-rule:nonzero}.fil2{fill:#5b5b5b}</style></defs><g id="Vrstva_x0020_1"><circle cx="5.297" cy="5.304" r="5.251" style="fill:none;stroke:#5b5b5b;stroke-width:.105065;stroke-dasharray:.650116 .650116"/><path class="fil1 str1" d="M1.812 6.812V5.144c0-.307.28-.556.625-.556h3.949c.345 0 .625.25.625.556v1.668c0 .307-.28.555-.625.555H4.022L2.317 8.71l.535-1.343h-.415c-.345 0-.625-.248-.625-.555zM8.78 3.674v-1.24c0-.23-.215-.414-.48-.414H5.258c-.266 0-.482.185-.482.413v1.24c0 .23.216.414.482.414h1.82l1.312 1-.411-1h.32c.265 0 .48-.185.48-.413z"/><path class="fil2" d="m2.717 5.72.002.097v.634a.543.543 0 0 1-.1.008.545.545 0 0 1-.101-.008v-.634l.001-.097h-.001l-.081.002h-.14a.496.496 0 0 1 0-.167h.644c.007.023.01.05.01.08s-.008.053-.025.066c-.016.014-.043.02-.08.02h-.129z"/><path id="1" class="fil2" d="M2.977 6.405a.21.21 0 0 1 .018-.07.186.186 0 0 1 .038-.061.401.401 0 0 0 .182.054.113.113 0 0 0 .06-.014c.015-.01.023-.021.023-.036 0-.028-.021-.05-.063-.064l-.073-.027c-.11-.04-.165-.105-.165-.195 0-.066.023-.118.068-.156a.273.273 0 0 1 .183-.058c.037 0 .079.005.124.016.046.01.084.023.115.038 0 .023-.005.05-.015.077a.13.13 0 0 1-.04.06.46.46 0 0 0-.182-.05.068.068 0 0 0-.044.014.042.042 0 0 0-.016.034c0 .022.018.04.055.054l.08.029c.116.042.175.112.175.208a.188.188 0 0 1-.073.155.318.318 0 0 1-.203.058.493.493 0 0 1-.247-.066z"/><path id="12" class="fil2" d="M3.94 6.082v-.011a.306.306 0 0 0-.014-.11c-.01-.025-.032-.037-.065-.037s-.056.016-.07.047a.418.418 0 0 0-.02.153c0 .07.01.12.03.15.02.029.05.043.091.043.041 0 .09-.019.144-.056a.141.141 0 0 1 .046.046.191.191 0 0 1 .03.063.372.372 0 0 1-.253.101.255.255 0 0 1-.213-.093.41.41 0 0 1-.074-.26c0-.112.028-.197.085-.254a.275.275 0 0 1 .202-.086c.077 0 .14.02.187.06.047.04.07.092.07.155 0 .032-.008.056-.025.072a.1.1 0 0 1-.072.024.393.393 0 0 1-.078-.007z"/><path id="123" class="fil2" d="M4.787 6.017v.273c0 .056.01.099.03.13a.176.176 0 0 1-.115.042c-.042 0-.071-.01-.087-.03-.016-.02-.023-.051-.023-.092v-.287a.142.142 0 0 0-.014-.07c-.008-.014-.024-.021-.047-.021a.152.152 0 0 0-.106.05v.44a.569.569 0 0 1-.192 0v-.958l.01-.009h.076c.038 0 .065.01.082.027.016.018.024.049.024.091v.258a.278.278 0 0 1 .178-.075.16.16 0 0 1 .137.063.273.273 0 0 1 .047.168z"/><path id="1234" class="fil2" d="M4.943 6.232v-.274a.226.226 0 0 0-.031-.129.168.168 0 0 1 .113-.042c.044 0 .073.01.09.03.016.02.024.05.024.09v.288a.14.14 0 0 0 .013.07c.009.015.024.022.046.022a.15.15 0 0 0 .106-.048v-.441a.565.565 0 0 1 .197 0v.467c0 .048.012.08.037.098a.158.158 0 0 1-.024.055.186.186 0 0 1-.038.044.162.162 0 0 1-.15-.092c-.066.062-.13.093-.194.093-.063 0-.11-.021-.141-.064a.274.274 0 0 1-.048-.167zm.32-.534a.174.174 0 0 1-.011-.063c0-.024.003-.045.01-.063a.16.16 0 0 1 .083-.021c.031 0 .058.007.081.02.008.02.012.04.012.065a.143.143 0 0 1-.012.062.152.152 0 0 1-.081.02.159.159 0 0 1-.083-.02zm-.262 0a.16.16 0 0 1-.012-.063.16.16 0 0 1 .012-.063.153.153 0 0 1 .081-.021.16.16 0 0 1 .083.02.18.18 0 0 1 .01.065.169.169 0 0 1-.01.062.16.16 0 0 1-.083.02.152.152 0 0 1-.081-.02z"/><path id="12345" class="fil2" d="M5.613 6.405a.21.21 0 0 1 .017-.07.186.186 0 0 1 .038-.061.401.401 0 0 0 .182.054.113.113 0 0 0 .061-.014c.015-.01.022-.021.022-.036 0-.028-.021-.05-.063-.064l-.072-.027c-.11-.04-.166-.105-.166-.195 0-.066.023-.118.068-.156a.273.273 0 0 1 .183-.058c.038 0 .08.005.125.016.045.01.083.023.114.038 0 .023-.004.05-.015.077a.13.13 0 0 1-.04.06.46.46 0 0 0-.181-.05.068.068 0 0 0-.045.014.042.042 0 0 0-.016.034c0 .022.018.04.055.054l.08.029c.117.042.175.112.175.208a.188.188 0 0 1-.072.155.318.318 0 0 1-.204.058.493.493 0 0 1-.246-.066z"/><path id="123456" class="fil2" d="M6.193 6.405a.21.21 0 0 1 .017-.07.186.186 0 0 1 .038-.061.401.401 0 0 0 .182.054.113.113 0 0 0 .061-.014c.015-.01.022-.021.022-.036 0-.028-.021-.05-.063-.064l-.072-.027c-.11-.04-.166-.105-.166-.195 0-.066.023-.118.068-.156a.273.273 0 0 1 .183-.058c.038 0 .08.005.125.016.045.01.083.023.114.038 0 .023-.004.05-.015.077a.13.13 0 0 1-.04.06.46.46 0 0 0-.181-.05.068.068 0 0 0-.045.014.042.042 0 0 0-.016.034c0 .022.019.04.055.054l.08.029c.117.042.175.112.175.208a.188.188 0 0 1-.072.155.318.318 0 0 1-.204.058.493.493 0 0 1-.246-.066z"/><path class="fil2" d="m5.955 3.023-.001-.097V2.67a.53.53 0 0 1 .1-.008.53.53 0 0 1 .1.008v.897a.543.543 0 0 1-.1.007.545.545 0 0 1-.1-.007v-.38l-.066.002h-.161l-.067-.002v.38a.535.535 0 0 1-.1.007.515.515 0 0 1-.1-.007V2.67a.513.513 0 0 1 .1-.008c.041 0 .075.003.1.008v.352l.067-.001h.16l.068.001z"/><path id="1" class="fil2" d="M6.888 3.477a.168.168 0 0 1-.024.057.178.178 0 0 1-.038.044.166.166 0 0 1-.136-.07.266.266 0 0 1-.186.08c-.068 0-.119-.02-.154-.061a.206.206 0 0 1-.051-.138c0-.074.024-.13.074-.17a.291.291 0 0 1 .184-.057c.03 0 .062.001.099.004v-.029c0-.058-.03-.087-.09-.087a.805.805 0 0 0-.195.043.238.238 0 0 1-.047-.137.84.84 0 0 1 .297-.058c.065 0 .12.019.164.055.044.036.066.092.066.168v.268c0 .041.012.07.037.088zm-.335-.035a.159.159 0 0 0 .103-.044V3.29l-.079-.001c-.059 0-.088.03-.088.088 0 .018.006.034.018.047a.061.061 0 0 0 .046.019z"/><path id="12" class="fil2" d="M7.255 3.425h.038a.269.269 0 0 1 .012.136.911.911 0 0 1-.15.013c-.049 0-.085-.014-.11-.042-.024-.028-.036-.072-.036-.134v-.787l.009-.01h.076c.038 0 .066.01.082.028.016.018.024.048.024.09v.644c0 .041.019.062.055.062z"/><path id="123" class="fil2" d="M7.663 3.425h.039a.269.269 0 0 1 .012.136.911.911 0 0 1-.152.013c-.048 0-.084-.014-.108-.042-.025-.028-.037-.072-.037-.134v-.787l.009-.01h.076c.039 0 .066.01.082.028.016.018.024.048.024.09v.644c0 .041.019.062.055.062z"/><path id="1234" class="fil2" d="M8.293 2.97c.063.064.095.153.095.27 0 .117-.032.207-.095.27a.278.278 0 0 1-.206.077.278.278 0 0 1-.206-.077c-.063-.063-.094-.153-.094-.27 0-.117.031-.206.094-.27a.281.281 0 0 1 .206-.076c.086 0 .155.026.206.076zm-.285.123a.427.427 0 0 0-.02.148c0 .064.006.113.02.148.014.034.04.051.08.051.039 0 .065-.017.079-.051a.419.419 0 0 0 .02-.148.424.424 0 0 0-.02-.148c-.014-.035-.04-.053-.08-.053-.039 0-.065.018-.08.053z"/></g></svg>