<svg xmlns="http://www.w3.org/2000/svg" xml:space="preserve" width="100" height="100" style="shape-rendering:geometricPrecision;text-rendering:geometricPrecision;image-rendering:optimizeQuality;fill-rule:evenodd;clip-rule:evenodd" viewBox="0 0 17.169 17.179"><defs><style>.fil0{fill:none}.fil1{fill:#5b5b5b}</style></defs><g id="Vrstva_x0020_1"><circle class="fil0" cx="8.579" cy="8.59" r="8.504" style="stroke:#5b5b5b;stroke-width:.170158;stroke-dasharray:1.052887 1.052887"/><g id="_309087896"><path id="_547126128" class="fil0" d="M10.348 3.767c.088.059.112.086.202.144.16.102.083.001.194.153a.091.091 0 0 0-.009.03c-.017.22.059.07.06.07.147.055.076-.107.098.148-.066-.07-.056-.036-.1-.046h-.02c-.117-.029-.097-.065-.227-.152.05.153.03.13.088.182.16.141-.04-.066.017.03l.007.014.085.092a.844.844 0 0 1 .013.013c.143.166.162.34.215.413 0 .002.008.009.01.01l.009.009.096.33.006.03.005.033.004.033.003.033c.03.234.054.078.045.201-.047.687.06-.014.071.357.012.406.104.33.17.353l-.05.198c.01.041.034.164.05.15l.057-.042-.058-.108.1-.05c-.061.133-.026.137.05.249-.109.053-.018.015-.15.05-.097-.23-.025-.274-.248-.298l.15-.09c.004-.002.022.003.024-.006.003-.009.017 0 .025-.003-.422-.195-.35-.053-.445-.127-.327-.253-.659.19-.895.275l.216.727c.074.232.16.463.181.712.033-.1.052-.161.031-.268l-.027-.09a.82.82 0 0 1-.004-.436h.149l.149.199V7.14c.273-.075.376-.2.415-.08.042.129-.118.06-.027.187.061-.018.117-.044.177-.012.135.07.152.22.196.437l.039.365c0 .009.008.018-.002.07l-.113.513c-.004.006-.04.034-.046.04l-.038.03c-.006.005-.048.002-.096.185-.035.13-.073.252-.057.391l.048.156c-.245.316.005.08-.248.347l.05-.347-.06.09c-.067.072.027.012-.09.059.034-.11.093-.21.03-.318-.141-.236-.093.02-.194-.147-.038-.062-.013 0-.01-.062.005-.067.032-.06-.016-.126l.091-.091c-.123-.128-.097.015-.124-.096-.003-.009-.017 0-.024-.004.036-.648-.146-.635-.05-.843-.13.12-.117.106-.088.237.024.11.038.203.038.359L10 8.628v.15c-.144-.118-.392-.388-.496-.1l.347.05-.05.144c-.007.036-.153-.048.024.085.167.124.237-.046.477.215l.124.095c.001-.007.014.003.02.006l-.293.101-.4-.051c-.038.114-.092.063-.249.1l.054-.13c.003-.016-.06-.06-.012-.127.17.126.244-.033.405-.091-.366-.241-.37-.01-.694.15l-.25.135c-.094.092.01.05-.096.094l-.023.007-.023.007-.095.095-.006.023-.007.025c-.001.004-.005.02-.007.023-.054.126-.05-.003-.139.036l-.002.076c-.02.08-.039-.048-.042.126-.002.147.14.035-.005.096-.149.062-.145.046-.15.248l.174-.067c.11-.042-.137-.074.224-.082-.12.103-.116.045-.1.248l-.297-.05.087.062c.074.067.129.112.07.195l-.115-.151-.02.128c.005.216.02-.281-.059.124l-.002.024-.015.04c-.004.006-.022.022-.026.028-.001.003-.011.011-.012.013l-.01.013c-.046.105 0 .03.001.036.002.017.038.035-.048.133-.054-.217-.099-.114-.05-.347-.103.042-.126.116-.206.058l.024-.068v-.029c-.012-.094-.003-.001-.051-.113-.048-.11-.048-.408-.114-.691.267-.012.042.038.149 0l-.05-.248c-.035.12.024.25-.107.157l.058-.405c-.059.14-.03.152-.12.142l-.067-.02c-.15.002-.156.077-.16.274l.099-.198.001.263c-.014.161-.02-.027.02.096.05.147-.023.076-.033.089-.052.067.02.25-.038.325l-.071.07c-.1.065.067.09-.028 0a.591.591 0 0 1-.197-.348c-.045-.187-.04-.338-.2-.396l.012-.114c.05-.209-.032.012.074.007.01 0 .129-.09.162-.19-.147 0-.131.03-.197-.055-.03-.038-.051-.142-.051-.293l.07.13c.077.103-.063.012.079.069l.05.099.134-.193.077.326.136-.133-.044.004c-.093-.004-.06.08-.105-.054l.149-.05c.072.317.047.218.099.2l-.025-.266c-.002-.007-.005-.021-.008-.027-.063-.15-.105-.008-.159-.225-.065-.261.022-.068-.097-.166-.107-.088-.154-.123-.158-.309l-.148-.198h-.15l-.168.48c-.065.145-.12.108-.145.28a.71.71 0 0 0 .086.39l.016.022.044.079.062.122.013.026c.008.016.006-.015.043.089l-.248-.05c.235.34.29-.02.298.348l-.126.007c-.304-.004.168-.093-.073-.007l.05.347c.055-.082.065-.122.055-.164l.143.114-.198.596-.149-.1c-.049.193-.094.343-.298.397l.126.048c.186.12.254.397.379.308l-.356-.405c.167-.125.244-.218.467-.152.013.004-.107.08.03.009.08-.042-.008-.001.049-.105.151.112.25.182.446.198-.16-.094-.33-.166-.396-.347.186.122.469.225.595.397l-.149.05.198.098c-.009-.089-.039-.134.05-.198.227.198.499.477.794.546l.056-.195c.01-.216.192-.254.192-.649-.143.132-.16.276-.256.207l.2-.28c.078-.146.019-.24.072-.41.23-.742.484-.622 1.22-.64.258-.007.083.039.378.102.12.026.192.007.32-.02l-.023.216c.056.058.039.083.073.23-.033-.03-.116-.074-.127-.121-.003-.016-.014-.019-.022-.028l-.05.397h.15c.052.374.068.094.085.673.003.082.014.175.014.27l.05-.248c.102.232.383 1.071.545 1.19l-.098-.348c-.11-.35-.37-.669-.2-.793l.33.368c.062.042.452.525.421.666-.026.12-.09.054-.05.153.03.076.112.131.192.153l-.105-.184c.068-.163.131.068.223.158.07.068.113.001.23.026l-.09.06c-.094.087-.008.217.04.337-.117-.029-.231.011-.306-.042l.168-.146c-.213.053-.308.039-.557.039l-.092-.201c0-.003.11-.01-.197-.253l-.028-.022a.536.536 0 0 1-.182-.216c-.102-.21.024-.154-.195-.3.058.12.098.203.092.333-.01.18-.013-.056-.017.129l.008.047.007.009c.097.143.211.226.257.424l.03-.233c-.046-.078-.097-.09-.038-.172.126.279.318.616.054.852a.357.357 0 0 1-.198.08c-.19-.007-.152-.14-.152-.153-.003-.119-.074-.132.056-.175l.15.198v-.05l-.042-.236c-.03-.13-.026-.019-.04-.003-.083.097-.274.134-.405.182.015.163.231.214.387.256l-.205.07-.352-.08c-.025.003-.003.031-.088.06l-.248-.199.149.397H9.9c-.027-.118-.052-.25-.1-.347l.119.057c.08.037.139.06.18.042l-.249-.149c.025-.175.118-.5.009-.653-.027.31-.009.72-.257.901a.614.614 0 0 0-.107-.24l-.08-.121c-.056-.06-.111-.095-.109-.187l-.001.052c-.202-.067-.023.01-.064-.076l.064.175-.059.033c-.066.059-.115.106.009.364l.298-.149v.199l-.225-.016c-.164-.011-.063-.004-.183-.026-.356-.067-.054.014-.386.042l.05-.397.198.1-.198-.299-.05.199c-.02-.364.14-.291.058-.405l-.147.167c.03-.242.153-.331.089-.606l-.187.366c-.038.103.036.21-.011.28-.12.178-.296.3-.438.456-.41.449-.63-.123-.837-.472a8.679 8.679 0 0 0-.525-.814l-.47-.569c-.073-.108-.004 0-.039-.075l-.42-.065.007-.068c-.007-.13-.057-.153-.057-.378l.298-.199-.138.26c-.028.144.013.175.039.286.108-.012.373.005.452-.066l.124-.193.014-.028.087-.167.014-.02c.152-.236.06-.168.053-.468l-.162.455c-.029.098-.035.132-.117.204l-.029.022c-.151.126-.132.257-.337.162.106-.018.153-.097.18-.155l.205-.253c.13-.183.156-.54.111-.733l.05.298h.149l-.1-.348h.15c-.122-.204-.097-.193-.118-.344-.016-.117-.065-.169-.145-.236v-.064c.07 0-.01.032.064 0-.038-.356-.041-.184.018-.307.014-.03.019.057.031-.09h-.148l.277-.392.019-.017c.001-.001.036.044.096-.234l.017-.06c.059-.17.136-.218-.062-.29 0-.21.02-.15.073-.318.043-.136-.227-.46-.1-1.196.044-.259.036-.62.061-.748.087-.446.3-.564.222-.673l-.315.697-.209.753c-.174.325-.18.55-.476.89l.266-.65c.018-.049.012-.045.016-.06l.026-.072c0-.004.006-.017.007-.02.009-.038.006-.12.013-.134.07-.14-.031.029.069-.007 0-.155.003-.397.048-.526l.054-.256c.146-.252-.042.207.046-.061l-.086-.109c-.056-.087-.075-.122-.021-.197l.107.306.079-.09c.135-.177-.03-.008-.053-.104-.002-.01-.018 0-.026-.004l.177-.165c.004-.005.01-.02.013-.024.111-.197.325-.361.455-.556l-.198-.099c.24-.044.212.074.432-.01l.131-.07c.005-.015.022-.012.032-.019l.05-.248c.219 0 .145-.042.169-.076l.12-.18c.072.168.085.103.02.171-.004.004-.026.027-.03.018-.003-.01-.021.01-.031.017l.347.05c-.112-.223-.16-.162-.058-.306l.207.058c-.161.092-.114.053-.1.1l.646-.1c.183.011.226.068.397-.05h.248c-.018.079-.032.072.035.12.169.12.392.036.613.125l-.003-.145zm.099 9.227v-.149h-.1c.048.199.097.144.1.149zm.248-.298h-.05c0 .081.01.059-.022.107a.329.329 0 0 1-.016.017l.038.075c.035-.07.05-.083.05-.199zm-2.77.108-.265-.414c-.064.091.009.075.215.463l.05-.05zm2.58-.15-.138-.105-.119.048.257.058zm.438-.057v-.05l-.157-.057.068.117c.058-.013.017-.01.089-.01zm.198-.198c-.009-.008-.021-.033-.025-.024-.005.008-.02-.02-.026-.024l-.197-.101c.087.13.05.132.248.149zm-2.083-.496h-.05c-.185.309-.149.177-.149.545.364-.192.199-.384.199-.545zm2.778.198h-.248v.05c.271 0 .11.142.248-.05zm-3.026-.347c-.11.076-.062.008-.1.149h.1v-.15zm-1.935-1.24c.178-.06.05.005.05-.248h-.05v.247zm3.815-.363-.026.011c-.065.128.009.01.021.014.005.001.057.007.06-.01l-.055-.015zm-.094-.282c.02.091-.013.013.034.114.032.07.032.046.065.084v-.198h-.1zm-.613-.01c-.004.043.086.116.067.01-.02-.103.044-.014-.05-.02l-.017.01zm.166-.09c-.077-.232.013.022-.149-.149l.149.15zm-.794-1.042.04-.039-.04.04zm1.885-1.389c-.114.033-.21.032-.166.173.077.244.036.078.096.087l.12-.061c-.153-.11-.096.02-.05-.199zm-.05.15c.006.004-.013.013-.014.014l.015-.015zm-2.579.049.248.1.248-.2c-.37-.143-.202.1-.496.1zm.348 0c-.027-.003-.11-.063.003-.08.088-.014.067.089-.003.08zm.347-.843c.228-.049.158.02.198-.1l-.298.298-.247-.1.099.298-.348-.198-.385.11c-.255.116-.206.24-.21.287l.1-.149.198.149c.418-.263.242-.277.496-.298l.149.397c.21-.246.095-.192.096-.233.001-.138.15.096.021-.127-.078-.137.022.184-.068-.086h.298l-.1-.248zm-.893.446c.005.005-.014.014-.015.015l.015-.015zm.694-.05c.005.005-.013.014-.014.015l.014-.015zm.199-.248c.005.005-.014.014-.015.015l.015-.015zm-.015-.084.015-.015c.005.005-.014.014-.015.015zm-.134.481c.005.005-.014.014-.015.015l.015-.015zm-1.34-.744c.151-.206.13.01.199-.248-.148.083-.273.164-.199.248zm1.142-.397c0-.036.02.008 0-.05l-.745.1v.149c.342-.043.379.028.685.106.217.056.34.057.506.092-.132-.2-.142-.266-.446-.347v-.05zm.282.313.015-.015c.005.005-.014.014-.015.015zm-.183-.214c.005.005-.014.014-.015.015l.015-.015zm.297.15c.005.004-.014.013-.014.014l.014-.015zM7.53 4.471c-.16.029-.12-.012-.148.149l.148-.15z"/><path id="_547126632" class="fil1" d="M7.817 13.837v-.05c-.03 0-.112.021-.111-.032l.01-.019.052-.047-.397-.05.1.248c.19 0 .11-.05.346-.05zm-.396-.148h.148v.05h-.148v-.05zm.545.198c-.164.079-.35.103-.545.149-.043-.117.083-.074-.298-.199.055-.034-.066-.073.248 0-.156-.213-.207-.09-.447-.297l.298.099c-.07-.194-.296-.24-.546-.298v-.05l-.05-.05.05.05.447.1c-.087-.076-.021-.047-.199-.1l.1-.148c-.193-.045-.298-.128-.546-.149l-.05-.1.447.1a.843.843 0 0 0-.496-.198l-.05-.05.496.1c-.207-.181-.45-.156-.645-.249v-.05l.199.05v-.1H6.13v-.049c.108-.05.326.027.446.05v.05l-.149.05.298.098-.1-.248a4.546 4.546 0 0 1-.545-.099l-.05-.05c.333 0 .224-.009.546.05v-.05c-.205 0-.312-.099-.595-.099v-.05l.496.05c-.09-.077.01-.07-.298-.099v-.05h.15c0-.077-.022-.078-.101-.189l-.495-.059-.149-.149c.127-.152.177.052.496-.05-.229-.052-.307-.049-.595-.049l-.1-.05h.596v-.049c-.195 0-.088-.035-.297-.05-.118-.008-.276 0-.398 0l-.099-.05h.595c-.019-.23.054-.086-.099-.198-.034.146.007.072-.099.15h-.447l-.099-.05c.203-.084.274.127.596-.1H4.89l-.249-.099.546-.149c-.36 0-.55-.05-.943-.05l-.198-.049c.035-.131-.004-.04.05-.149.141-.058.054 0 .297 0l-.297.05c.273.144.141.102.496.099.277-.003.327.045.545.05l-.105-.071c-.087-.03-.485-.028-.589-.028l.198-.05.1-.149-.05-.248.297.15-.347-.348c-.05-.122-.033-.04 0-.199-.125-.078-.13.015-.148 0l.048-.148c.07-.027.105.157.078-.029-.023-.153-.095.203-.044-.126l.215.105-.099.248c.065.042.233.18.405.058-.172-.34.078-.136-.05-.315l-.042.022-.014.01a.216.216 0 0 0-.01.013l-.041.162-.072-.15-.016-.02c-.105-.148-.194-.284-.21-.475l.068.081c.1.118.153.182.28.266-.175-.352-.442-.728-.15-.942-.091-.04-.157-.185-.198-.298l.044-.055c.164-.201.124-.158.254-.193-.227-.115-.07.017-.149-.149-.247.323-.127.197-.271.282-.198.117-.125.133-.125.135-.044.126-.13.13-.197.276a.532.532 0 0 0-.028.252c.084.274.37-.082.423.544l-.044.015-.023.01-.282.093a3.309 3.309 0 0 0-.055.068l.086-.213c.08-.098.177.031.201-.088.033-.164.013-.016-.03-.047l-.25-.136c-.038-.066-.032-.053-.05-.149l-.05-.1c-.038-.093-.013-.264.05-.396.088-.1.157-.184.263-.285.142-.135.19-.125.134-.26v-.1l.093.007c.062.159-.016.029.056.142l.024-.236c.016-.156.012-.031.044-.13.066-.205.074.026.08-.279l.15-.05-.1-.17c-.017-.092-.048.051 0-.177l-.14.278c-.02.054 0-.01-.01.036l-.197.083c0-.342-.024-.312.1-.546.11.05.036.014.091-.013l.012-.009c.002 0 .049 0 .053.004.133.114-.083-.123.03.051.343.522.05.146.16.414.103.005.096.002.158-.042-.046-.173-.037-.219-.095-.313-.177-.292.035.179-.062-.092.314-.188.13.25.453-.248.114-.177.049-.135.043-.149-.14.077-.138.222-.348.298.219-.29.115-.252.323-.451.116-.11-.024-.034.025-.144l.177.17.023.027c.006.007.036.04.048.05.028-.104.038-.103.094-.114.034-.006-.011.063.112-.026l-.117-.097c.38-.111.113-.028.211-.125l.057-.036.002-.009c-.006-.122-.036.008-.045-.064-.002-.012-.014-.015-.017-.024.135-.154.159-.147.199-.298l-.29.316c-.353.268.075.027-.206.23-.109-.127-.097-.09-.135-.206L5.585 5.9c.035.44.233.18.108.355l-.19-.224c-.003-.017-.01-.022-.017-.032l-.127.283c-.1.262.103-.162-.022.064-.113-.035-.062-.031-.199 0l-.106.143-.05-.035.107-.108h.05c.065-.244.098-.057.1-.445.003-.35.052-.646.203-.938.082-.158.096-.24.205-.39l.439-.504.026-.024.079-.07c.65-.554.826-.61 1.565-.761.15-.031.701-.088.875-.065.561.075 1.258.31 1.716.618l.004.145c-.22-.09-.444-.005-.613-.125-.067-.048-.053-.041-.035-.12h-.249c-.17.118-.213.061-.396.05l-.645.1c-.015-.047-.062-.008.099-.1l-.207-.058c-.102.144-.054.083.058.306l-.347-.05c.01-.006.028-.026.032-.017.003.009.025-.014.028-.018.066-.068.053-.003-.019-.171l-.12.18c-.024.034.05.076-.17.076l-.049.248c-.01.007-.027.004-.032.02l-.13.07c-.22.083-.192-.035-.433.01l.198.098c-.13.195-.344.36-.455.556l-.013.024-.177.165c.008.003.024-.005.026.004.023.096.187-.073.053.105l-.079.089-.107-.306c-.054.075-.035.11.021.197l.086.109c-.088.268.1-.191-.046.06l-.054.257c-.045.129-.049.37-.048.526-.1.036.002-.133-.069.007-.007.015-.004.096-.013.134l-.007.02-.026.071c-.004.016.002.012-.017.06l-.265.651c.296-.34.302-.565.476-.89l.209-.753.315-.697c.078.11-.135.227-.222.673-.025.127-.017.49-.062.748-.126.736.144 1.06.1 1.196-.053.168-.072.108-.072.318.198.072.12.12.062.29l-.017.06c-.06.278-.095.233-.096.234l-.02.017-.276.391h.148c-.013.148-.017.062-.031.091-.06.123-.056-.049-.018.306-.074.033.007.002-.064 0v.065c.08.067.13.119.145.236.021.15-.004.14.117.344h-.149l.1.348h-.15l-.049-.298c.045.194.02.55-.11.733l-.205.253c-.028.058-.075.137-.18.155.204.095.185-.036.336-.162l.029-.022c.082-.072.088-.106.117-.204l.162-.455c.007.3.1.232-.053.467l-.014.021-.087.167-.014.028-.124.193c-.08.071-.344.054-.452.066-.026-.11-.067-.142-.04-.285l.14-.26-.299.198c0 .225.05.248.057.378l-.007.068.42.065c.035.075-.034-.033.038.075l.471.569c.2.267.35.52.525.814.207.349.427.92.837.472.142-.156.318-.278.438-.457.047-.07-.027-.176.011-.279l.187-.366c.064.275-.058.364-.089.606l.147-.167c.081.114-.078.04-.058.405l.05-.199.198.298-.198-.1-.05.398c.332-.028.03-.11.386-.042.12.022.019.015.183.026l.225.016v-.199l-.298.149c-.124-.258-.075-.305-.009-.364l.059-.033-.064-.175c.041.087-.138.009.064.076l.001-.052c-.002.092.053.127.11.187l.08.12c.034.05.084.129.106.24.248-.18.23-.59.257-.9.109.152.016.478-.009.653l.248.149c-.04.018-.1-.005-.18-.042l-.117-.057c.047.097.072.229.1.347-.388.008-.6.163-.915.227-.21.043-.316.022-.516.079-.163.045-.274.125-.455.14-.081-.229.09.273 0-.102a.294.294 0 0 0-.005-.02l-.152-.134c-.036.05-.063.057-.01.116l.054.047c.07.078.025.05.063.143zm3.572-7.243v.05l-.097.057c.17.33.148.238.145.5l.002.194c-.032.189-.039.01-.032.186 0 .01.006.028.006.036.001.007.01.041.012.034 0-.006.007.024.014.034.146.17.257.049.118.397l-.02.055c-.058.185-.027.195.05.342-.158.01-.118-.006-.143.046a1.035 1.035 0 0 0-.104.35l.067-.13c.106-.19-.028-.05.131-.167l.155.314c.17.265.134-.093.143.282l-.038-.062c-.005-.007-.016-.022-.022-.028-.067-.072.027-.012-.09-.06l-.099.15.15.05-.05.297h-.298c.377.244.193.035.347.198l.047-.316c.003-.012.01-.048.011-.06.01-.093.037-.012-.008-.12l.198.1-.067.06c-.01.1.071.056.092.154l-.055.363c-.067.223-.059.089-.075.102-.1.08-.125.02-.052.122l.073-.033c.225-.147.045-.222.184-.173v.05l-.05.049v.05a.442.442 0 0 0-.1.148v.1c-.024.038-.022.024-.05.098a1.474 1.474 0 0 0-.022.077c-.027.104-.017.054-.026.172l-.05.05-.05-.05c-.195.29-.096.02-.207.147-.1.114.037.133-.19.3l.348.05c-.084.04-.087.042-.149.098.25 0 .257-.005.439-.047l.057.097c-.08.095-.175.024-.496 0v.099c.369 0 .418.076.695.1v.049c-.047.022-.453-.044-.546-.05.12.164.59.172.645.15v.049c-.127.151-.017-.08-.546.05.206 0 .194.012.35.052.056.014.127.03.144.026l.101-.079c.035.145-.006.072.1.15.093.176.06.181.217.328.068.064.056.014.123.124.079.131.052.036.056.242l-.297-.05c.073-.07.111-.01 0-.149-.037.09.078.148-.298.05l.292.101.055.197c.258-.173.007-.078.298 0l.05.198-.298.1-.05-.1c.041.193.041.055 0 .248h-.05c-.053-.034-.004-.024-.105-.045-.155-.032-.151-.013-.291.045.185 0 .184-.023.297.05l-.198.05a.585.585 0 0 0-.446-.05c.184.088.203.007.347.099-.383 0-.632-.041-.942-.052-.36-.013-.557.052-.943.052l-.15-.397.249.198c.085-.028.063-.056.088-.06l.352.082.205-.071c-.156-.042-.372-.093-.387-.256.131-.048.322-.085.406-.182.013-.016.01-.128.038.003l.042.236v.05l-.149-.198c-.13.043-.059.056-.056.175 0 .013-.038.146.152.153a.357.357 0 0 0 .198-.08c.264-.236.072-.573-.054-.852-.059.082-.008.094.038.172l-.03.233c-.046-.198-.16-.28-.257-.424l-.007-.01-.008-.046c.004-.185.007.051.017-.129.006-.13-.034-.212-.092-.334.219.147.093.091.195.301.05.103.086.136.182.216l.028.022c.307.244.196.25.197.253l.092.2c.25 0 .344.015.557-.038l-.168.146c.075.053.189.013.306.042-.048-.12-.134-.25-.04-.338l.09-.06c-.117-.024-.161.043-.23-.025-.092-.09-.155-.321-.223-.158l.105.184c-.08-.022-.162-.077-.193-.153-.039-.099.025-.033.051-.153.031-.14-.359-.624-.421-.666l-.33-.368c-.17.124.09.442.2.793l.098.348c-.162-.119-.443-.958-.546-1.19l-.05.248c0-.096-.01-.188-.013-.27-.017-.58-.033-.3-.085-.673h-.15l.05-.397c.008.009.019.012.022.028.011.047.094.092.127.121-.034-.147-.017-.172-.073-.23l.024-.217c-.129.028-.2.047-.32.02-.296-.062-.12-.108-.38-.101-.735.018-.988-.102-1.22.64-.052.17.007.264-.07.41l-.201.28c.096.069.113-.075.256-.207 0 .395-.182.433-.192.649l-.056.195c-.295-.07-.567-.348-.794-.546-.089.064-.059.11-.05.198l-.198-.099.149-.05c-.126-.171-.409-.274-.595-.396.065.181.237.253.396.347-.196-.016-.295-.086-.446-.198-.057.104.03.063-.05.105-.136.072-.016-.005-.029-.01-.223-.065-.3.028-.467.153l.356.405c-.125.089-.193-.188-.379-.308l-.126-.048c.204-.054.25-.204.298-.397l.149.1.198-.596-.143-.114c.01.042 0 .082-.055.164l-.05-.347c.241-.086-.231.003.073.007l.126-.007c-.009-.368-.063-.008-.298-.348l.248.05c-.038-.104-.035-.073-.043-.09l-.013-.025-.062-.122-.044-.079-.016-.022a.71.71 0 0 1-.086-.39c.025-.172.08-.135.145-.28l.169-.48h.149l.148.198c.004.186.05.221.157.309.12.098.033-.095.098.166.054.217.096.076.16.225l.007.026.025.266c-.052.019-.027.118-.1-.198l-.148.05c.044.134.012.049.105.053l.044-.004-.136.133-.077-.326-.135.193-.05-.1c-.14-.056-.001.035-.079-.068l-.07-.13c0 .15.022.255.052.293.066.084.05.055.197.055a.423.423 0 0 1-.163.19c-.105.005-.023-.216-.073-.007l-.012.114c.16.058.155.21.2.396a.591.591 0 0 0 .197.348c.095.09-.073.065.028 0l.07-.07c.058-.076-.013-.258.04-.325.01-.013.083.058.033-.09-.042-.122-.035.066-.02-.095l-.002-.263-.1.198c.005-.197.011-.272.16-.273l.068.02c.09.01.061-.003.12-.143l-.058.405c.131.094.072-.037.107-.157l.05.248c-.107.038.118-.012-.149 0 .066.283.066.58.114.691.048.112.038.019.05.113.002.006 0 .023 0 .029l-.023.068c.08.058.103-.016.206-.058-.05.233-.004.13.05.347.086-.098.05-.116.048-.133 0-.007-.047.069 0-.036l.009-.013c0-.002.01-.01.012-.013.004-.006.022-.022.026-.029l.014-.039c.002-.004.002-.02.003-.024.08-.405.064.092.058-.124l.021-.128.115.15c.059-.082.004-.127-.07-.194l-.087-.062.297.05c-.017-.203-.02-.145.1-.248-.361.008-.115.04-.224.082l-.173.067c.004-.202 0-.186.149-.248.146-.062.003.05.005-.096.003-.174.022-.047.042-.126l.002-.076c.09-.04.085.09.14-.036 0-.004.005-.019.006-.023l.007-.025.006-.023.095-.095c.004-.002.02-.005.023-.007l.023-.007c.107-.043.002-.002.095-.094l.25-.135c.324-.16.33-.391.695-.15-.16.058-.235.217-.406.09-.048.068.016.112.013.128l-.054.13c.157-.037.211.014.248-.1l.4.051.295-.1c-.007-.004-.02-.014-.021-.007l-.124-.095c-.24-.26-.31-.09-.477-.215-.177-.133-.03-.05-.025-.085l.051-.145-.347-.05c.104-.287.352-.017.496.1v-.149l.496-.148c0-.156-.014-.25-.038-.36-.03-.13-.042-.115.088-.236-.096.208.086.195.05.843.007.004.021-.005.023.004.028.111.002-.032.125.096l-.09.09c.047.067.02.06.015.127-.004.062-.028 0 .01.062.1.166.053-.09.193.147.064.107.005.207-.028.318.116-.047.022.013.089-.06l.06-.089-.05.347c.253-.268.003-.03.248-.347l-.048-.156c-.016-.14.022-.261.057-.391.048-.183.09-.18.096-.186l.038-.03c.007-.005.042-.033.046-.039l.113-.513c.01-.052.002-.061.002-.07l-.04-.365c-.043-.217-.06-.367-.195-.437-.06-.032-.116-.006-.177.012-.09-.127.07-.058.027-.188-.04-.12-.142.006-.415.081V7.289l-.15-.199h-.148a.82.82 0 0 0 .003.435l.028.091c.02.107.002.167-.03.268-.022-.25-.108-.48-.182-.712L10 6.445c.236-.085.568-.528.895-.275.095.074.023-.068.445.127-.008.003-.022-.006-.025.003-.002.01-.02.004-.024.005l-.15.09c.223.025.151.07.248.299.131-.035.041.003.15-.05zm1.439 6.548c-.066.038-.053.032-.15.05v-.1l.15.05zm.149-.148v.05-.05zm-.744-1.34.014-.015c0 .001-.01.02-.014.015zm-.15-.298-.014.015s.01-.02.015-.015zm-.496-.545-.014.015c0-.001.01-.02.014-.015zm.15 0h-.05.05zm-.546-4.416h.05l.057.108-.058.041c-.015.015-.04-.108-.05-.149zm-.447-2.133v.05l.248.546v.05c.038.16.085.217.1.396v.05c0 .235-.002.094.05.149v.099c.073.178-.02.003.017.276 0 .01.027.14.035.166.025.089.016.056.046.103v.05c-.065-.024-.157.053-.17-.353-.01-.371-.117.33-.07-.357.008-.124-.015.033-.045-.201l-.003-.033c-.001-.009-.002-.025-.004-.033a1.336 1.336 0 0 0-.005-.032l-.006-.03-.096-.331-.01-.009-.01-.01c-.052-.072-.07-.247-.214-.413a.844.844 0 0 0-.013-.013l-.085-.092-.007-.015c-.057-.095.143.112-.017-.03-.059-.051-.037-.028-.088-.181.13.087.11.123.227.151l.02.001c.044.01.034-.024.1.046zm.333.71.014-.015c.005.005-.013.014-.014.015zm-.298-.596.015-.015c.005.005-.014.014-.015.015zm-.184-.362.05.1s-.076.15-.059-.07c0-.004.004-.02.01-.03zm-6.052 6.152c.005.005-.014.014-.015.015l.015-.015zm-.198.1h.05l.096-.055c-.017.235.056.091-.097.203-.025-.096-.009-.077-.05-.149zm0 .049c.005.005-.014.013-.015.014l.015-.014zm-.15.05v-.05l-.049-.05v-.05c.037.02.08.036.108.07l.02.041c.002.005.005.019.008.023l.034.044c.063.076.044.01.128.17h-.397l.149-.199zm1.39.843c.005.005-.015.007-.015.014 0 .039.002-.027.015-.014zm.843 1.885v-.05c.068-.032-.075-.072.1-.005l.148.104c-.134-.01-.135-.023-.248-.05zm.298.05c.123 0 .012.079 0 .03l-.001-.004c-.003-.03-.11-.027 0-.027zm-.15.297v-.05c.096.023 0-.028.116.035.064.034.047.033.083.065-.153-.013-.093 0-.198-.05zm.844-.1-.148.1c.01-.005.029-.025.033-.016.005.01.027-.013.033-.017.084-.058.038-.027.082-.066zm.893 0c-.23.02-.087-.052-.198.1.095-.022-.001.029.115-.034.064-.035.047-.034.083-.065zm-1.389-.346v-.05l-.05-.05.348.199c-.03-.025.018-.04-.117-.082-.08-.026-.095-.017-.18-.017zm5.21.198c-.064-.157.059-.051-.134-.115a.916.916 0 0 0-.214-.034c.141.193.115.037.347.149zm0-.149h.148c-.111-.154-.037-.154-.149 0zm-1.241-.198-.083.066c.084-.058.039-.028.083-.066zm1.736-.05-.149.149c.208-.055.082-.021.15-.149zm-5.953-.198v.05h.199v.049h-.15v.05h.2c-.052-.191-.014-.15-.249-.15zm5.904.099c-.142.034-.075-.008-.15.1.146-.036.072.006.15-.1zm-5.805-.347zm-.297-.1.198.05c-.077-.05-.094-.047-.198-.05zm6.2.1c-.133-.116-.353-.14-.594-.199.127.174.022.06.276.12.163.039.14.06.319.079zm-.247-.199v-.099c-.322-.007-.203-.072-.447 0 .15.035.283.086.447.1zm-6.003-.05.149-.099c-.012-.004-.028-.026-.033-.016-.005.01-.025-.014-.032-.018-.112-.057-.076-.038-.233-.065.081.11.077.056.141.179l.008.02zm5.904-.198-.397-.05c.115.1.2.087.397.1v-.05zm-6.45-.248v.1h.15c-.079-.113-.01-.059-.15-.1zm.249 0 .198.05c-.01-.007-.024-.03-.03-.02-.005.01-.025-.015-.033-.017-.069-.015-.064-.011-.135-.013zm.099-.248H6.03c.125.108.082.092.348.05v-.05zm-.15-.05v-.099c-.223-.018-.166-.01-.346-.099.043.164.017.171.347.198zm2.382-.248v-.148h-.1c.048.198.098.143.1.148zM5.546 10.8c.03.16-.011.12.149.15l-.149-.15zm-.06.11c-.024-.291-.1-.06-.1-.446h-.198v.347l.199-.1.099.2zm6.003-.446c-.05-.055-.11-.042-.198-.044l-.13.002c-.009-.026-.047.011-.078.034.153.232.023.365.009.405.194-.43.122-.367.35-.387.005 0 .022.004.025-.004.003-.008.015-.003.022-.006zm-2.747.13c.003-.016.027-.022.026-.04l-.026.04zm2.994-.08c-.143-.015-.099-.001-.198-.05l.149.099c-.173.219-.126.137-.1.198.182-.05.145-.05.15-.248zM6.28 9.818c-.156-.104-.249-.149-.249-.397l-.099.248c-.103.007-.328.008-.412.044-.097.043.122-.001-.039.027-.205.036-.038-.082-.036-.109.004-.04.022-.02.005-.087-.035-.137.01-.02-.063-.073-.023.13-.04.275-.119.384-.072.101-.13.021-.13.46h.05c.045-.217.05-.388.199-.497-.027.118-.098.317-.072.427l.072.119.057-.042c-.023-.122-.059-.195.161-.333.109-.068-.008-.053.08-.022l-.249.496.248.149.036-.063c.015-.024-.047.009.16-.188l.077-.072c.004-.015.016-.016.025-.025l.266.13c.005-.009.023.028.032.02l.057-.042c-.342-.261-.065-.121-.276-.196a1.668 1.668 0 0 1-.063-.024c-.007-.003-.028-.003-.033-.017-.005-.015-.022-.012-.033-.02l.226-.098c.042-.046.01-.067-.02-.108-.242.06-.182.015-.238.003-.12-.025.025.038-.166.055l.248-.248.004.098c-.004.195-.067-.126-.004.05l.1-.148.159.138.039-.04zm-.497.446c-.066.278-.126.18-.157.158l.157-.158zm-.064-.382.015-.014c.005.005-.014.013-.015.014zm-.283-.114c.048.13-.062-.004-.062-.005-.11-.092.06 0 .062.005zm-.015-.183.015-.015c.005.005-.014.014-.015.015zm.598.079c-.11-.093.06 0 .062.005.047.13-.062-.005-.062-.005zm-.236.104c.005.005-.013.014-.014.015l.014-.015zm-.694.397c.024-.129-.049-.031-.067.01-.042.099.056.047.067-.01zm1.44-.385c.115-.066.021-.039-.001-.061-.034-.034.016-.093-.061-.001-.061.072.013.09.062.062zm-.016-.046.015-.015c.004.005-.014.014-.015.015zm4.876-.164c0-.168.061-.188 0-.298l-.05.298h.05zm-6.417-.38c-.087.006-.031.003-.081.033l.247.149.05-.05c-.105-.063-.083-.144-.216-.133zm.91-.116c-.167.176.062.103-.083.06-.054-.015.015-.167-.123-.068.114.194.093.13.107.306h.15l-.05-.298zm-.346.08c-.07-.005.075.157.049.019-.019-.102.044-.014-.05-.02zm-.42-.206c-.014-.047-.039-.015-.085.018l.18.134c.005-.009.018.032.027.023l.05-.05c-.045-.029-.064-.038-.119-.08-.007-.005-.048-.024-.054-.045zm.816.324c.172-.125.05-.081.17-.228.14-.173.106.05.178-.218-.107.064-.266.096-.348.446zm-.893-.397c-.002-.099.01-.085-.02-.177-.063-.181-.098-.107-.137-.079.108.175.022.157.157.256zm1.377-.21c.015-.109.005 0 .021-.05l.016-.05.009-.024c.076-.152.109-.07.165-.31-.275.337-.184.075-.233.235-.037.12-.051.134-.046.199.007.087.08.16.08.16l.05-.049c-.044-.032-.08.03-.062-.11zm.51.064.098.053.028.014.035.012c.096.036-.03.005.086.018l.057-.207-.304.11zm-1.49-.25c.021.09-.012.013.034.114.032.07.032.046.065.084V8.48h-.099zm.347.099h-.099c.038-.141-.01-.073.1-.15v.15zm.257-.604c-.315.634-.06.33-.329.44a.548.548 0 0 0-.076.065c-.099-.198-.089-.157-.157-.108l.355.504V8.48l.24-.208c-.312.048.087.11-.14.01l.072-.177c.004-.007.017-.022.021-.028.024-.034.067-.032.063-.052l-.05-.05zm-1.016.469c.111-.228.124-.119.065-.262l-.018.037c-.087.159-.144.158-.081.31l.034-.085zm1.603-1.106c0-.251.037-.147-.1-.248-.2.326-.206.41-.446.248l.298.15c-.14.093-.665.555-.794 0-.05.058-.137.11-.037.229.12.139.177.03.25.159.01.017.004.041.091.035.511-.04.453-.266.688-.424-.126.313-.04.112-.054.343-.005.1-.098.288-.098.287l.003.015c.266-.053-.055-.167.248-.248v-.446h-.248l.05-.199.149.1zm-.695.496c.005.005-.014.014-.014.015l.014-.015zm.482-.382.014-.014c.005.005-.013.014-.014.014zm-1.474.283c.118-.079.052-.06.198-.099-.018-.136-.093-.028-.247-.1.01.137.004.109.049.2zm6.3-1.19c-.173-.077.15.018-.066.005-.123-.007-.063-.052-.068-.06-.087-.146-.27-.104-.423-.12-.192-.022.014-.063-.118-.05-.011 0-.291.134-.35.288-.104.276-.008.347.083.482.129-.089.488-.45.893-.099.02-.112.028-.11.1-.149l-.05-.297zm-.922.446c-.05-.008.03-.127.03 0 0 .112.003.002-.026 0h-.004zm-.084-.134.014-.015c.005.005-.014.014-.014.015zm.049-.298.015-.014c.005.005-.014.014-.015.014zm.809-.114c.005.005-.014.014-.015.015l.015-.015zm.099.348c.005.005-.014.013-.015.014l.015-.014zm-5.074-.349c-.05.035.078.066.014.001-.004-.003-.014 0-.014 0zm.014-.098c.139-.16.171-.157.05-.297l-.05.297zm-.353-.6c.049-.055.067-.088.105-.144-.165.12-.138.084-.248.248.11-.04.076-.03.143-.105zm.014-.45c-.12.108-.124.115-.157.257l.074-.075.025-.025.107-.107-.05-.05zm.339.207c-.07-.127.007-.139.05-.298-.213.167-.247.157-.298.298.25.046.155.08.248 0zm-.164-.035.015-.015c.005.005-.014.014-.015.015zm.114-.064c.005.005-.014.014-.015.015l.015-.015zm.347.149c.004-.152.023-.181.05-.298-.063.042-.106.056-.128.153a.717.717 0 0 0 .006.104c.034.065-.04.003.072.04zm.009-.951c-.404.439-.23.228-.306.554l.123-.162c.017-.125-.07-.103.165-.294.035-.028.07-.029.067-.049l-.05-.05zm-.222.32.015-.014c.005.004-.014.013-.015.014z"/><path id="_547124280" class="fil0" d="m11.538 6.694.15-.15.199.297c.113.158.086.132.147.349l-.248-.199c-.007.085.038.156-.149.05l.15.248c-.037.156-.048.1-.009.258l.061.353.007.028.006.028c.064.213.3.349.331.722-.118-.087-.16-.181-.198-.347l-.02.19c0-.005.013.005.02.008l.099.496.1-.149c0 .518.175.655.104.948-.06.251.057-.142-.039.108-.003.008-.01.025-.016.036-.14-.05.041.026-.184.173l-.073.033c-.073-.102-.048-.042.052-.122.016-.013.008.121.076-.102l.054-.363c-.02-.098-.102-.054-.092-.155l.067-.06-.198-.099c.045.108.018.027.008.12 0 .012-.008.048-.01.06l-.048.316c-.154-.163.03.046-.347-.198h.298l.05-.298-.15-.05.1-.148c.116.047.022-.013.089.06.006.005.017.02.022.027l.038.062c-.009-.375.027-.017-.143-.282l-.155-.314c-.16.117-.025-.022-.131.167l-.067.13c.01-.126.058-.254.104-.35.025-.052-.015-.037.143-.046-.077-.147-.108-.157-.05-.342l.02-.055c.139-.348.028-.227-.118-.397-.007-.01-.013-.04-.014-.034-.001.007-.01-.027-.011-.034-.001-.008-.007-.026-.007-.036-.007-.176 0 .003.032-.186l-.002-.194c.003-.262.025-.17-.145-.5l.097-.057zm.546 3.571a.442.442 0 0 1 .1-.148c-.035.141.007.074-.1.148zm.1-.198.049-.05-.05.05zm-.249-2.133-.015.015c.001-.001.01-.02.015-.015zm0-.298-.097-.292.196-.055-.149.595c.026-.111.05-.114.05-.248zm-.347-1.091c-.016-.003-.15-.155-.006-.106.09.03.093.123.006.106z"/><path id="_547175352" class="fil0" d="m4.642 9.918-.297.149.099-.496c-.264.193-.173.171-.347.446l.205-.7-.106-.143.25.136c.043.03.063-.117.03.047-.024.119-.122-.01-.2.088l-.087.213a3.31 3.31 0 0 1 .055-.068l.282-.094c.005-.002.019-.007.023-.01l.044-.014c-.052-.626-.339-.27-.423-.544a.532.532 0 0 1 .028-.252c.067-.145.153-.15.197-.276 0-.002-.073-.018.125-.135.144-.085.024.041.271-.282.078.166-.078.034.149.15-.13.034-.09-.009-.254.192l-.044.055c.041.113.107.258.199.298-.293.214-.026.59.149.942-.127-.084-.18-.148-.28-.266l-.068-.08c.016.19.105.326.21.474l.016.02.072.15.04-.162a.216.216 0 0 1 .011-.013l.014-.01.042-.022c.128.179-.122-.025.05.315-.172.123-.34-.016-.405-.058l.1-.248-.216-.105c-.05.329.021-.027.044.126.027.186-.008.002-.078.029l-.048.148c.017.015.023-.078.148 0zM4.146 8.53c.076-.323.047-.033.335-.458.058-.086.005-.021.062-.088.056.136.008.126-.134.26-.106.102-.175.185-.263.286zm-.05.397.05.1-.106-.003.057-.097zm.1 1.091c.135 0 0 .178-.003.045 0-.05-.11-.045.003-.045z"/><path id="_547125400" class="fil0" d="m4.642 6.842.1-.099c.201-.135.064.01.206-.09l-.033-.108-.124.099.149-.205c.158-.163.08-.117.149-.093l-.108.108.051.035.106-.143c.137-.031.086-.035.199 0 .125-.226-.079.198.022-.064l.127-.283c.007.01.014.015.018.032l.189.224c.125-.175-.073.086-.108-.355l.014.042c.038.116.026.079.135.206.28-.203-.147.038.206-.23l.29-.316c-.04.151-.064.144-.199.298.003.009.015.012.017.024.01.072.039-.058.045.064l-.002.009-.057.036c-.098.097.17.014-.21.125l.116.097c-.123.089-.078.02-.112.026-.056.01-.066.01-.094.115a1.231 1.231 0 0 1-.048-.051l-.023-.027-.177-.17c-.05.11.091.034-.025.144-.208.2-.104.16-.323.451.21-.076.207-.22.348-.298.006.014.071-.028-.043.149-.324.499-.14.06-.453.248.097.27-.115-.2.062.092.058.094.05.14.095.313-.062.044-.055.047-.157.042-.11-.268.182.108-.16-.414-.114-.174.102.063-.03-.051a.198.198 0 0 0-.054-.004l-.012.009c-.055.027.019.063-.092.013zm-.099 1.042c0-.084.016-.204.017-.256 0-.055-.014-.11-.017-.24l.197-.083c.01-.046-.01.018.01-.036l.14-.278c-.048.228-.017.085 0 .176l.1.171-.149.05c-.007.305-.015.074-.081.28-.032.098-.028-.027-.044.129l-.024.236c-.072-.113.006.017-.056-.142l-.093-.007z"/><path id="_547124224" class="fil0" d="m5.783 10.265-.157.158c.031.021.091.12.157-.158zm-.05-.396-.014.014c.001 0 .02-.01.015-.014zm-.297-.1c-.002-.005-.171-.097-.062-.005 0 0 .11.136.062.005zm.347 0-.014.015s.02-.01.014-.015zm.298-.099c-.002-.005-.171-.098-.062-.005 0 0 .11.136.062.005zm-.645-.1-.015.016c.001-.001.02-.01.015-.015zm.844.249-.04.039-.159-.138-.1.149c-.062-.177.001.144.005-.051l-.004-.098-.248.248c.191-.017.046-.08.166-.055.056.012-.004.057.239-.003.03.042.06.062.019.108l-.226.099c.01.007.028.004.033.019.005.014.026.014.033.017l.063.024c.21.075-.066-.065.276.196l-.057.041c-.01.009-.027-.028-.032-.018l-.266-.13c-.009.008-.021.009-.025.024l-.077.072c-.207.197-.145.164-.16.188l-.036.063-.248-.15.248-.495c-.087-.031.03-.046-.079.022-.22.138-.184.211-.16.333l-.058.042-.072-.119c-.026-.11.045-.309.072-.427-.15.109-.154.28-.199.496h-.05c0-.438.058-.358.13-.46.078-.108.096-.253.119-.383.073.053.028-.064.063.073.017.067 0 .047-.005.087-.002.027-.169.145.036.109.16-.028-.058.016.04-.027.083-.036.308-.037.411-.044l.1-.248c0 .248.092.293.248.397z"/><path id="_547123048" class="fil0" d="M10.348 6.991c0-.127-.079-.008-.03 0h.004c.03.002.025.112.025 0zm-.1-.149-.014.015s.02-.01.014-.015zm.943-.05-.015.016c.001-.002.02-.01.015-.015zm-.893-.247-.015.014c.001 0 .02-.01.015-.014zm.794-.1-.015.015s.02-.01.015-.015zm.148.1.05.297c-.071.04-.078.037-.1.15-.404-.353-.763.009-.892.098-.09-.135-.187-.206-.082-.482.058-.154.338-.288.349-.289.132-.012-.074.03.118.05.153.017.336-.025.423.12.005.009-.055.054.068.061.217.013-.107-.082.066-.005z"/><path id="_547122544" class="fil0" d="m5.932 7.834-.014.015s.02-.01.014-.015zm.496-.396-.014.014s.02-.01.014-.014zm.199-.1-.149-.099-.05.199h.248v.446c-.303.081.018.195-.248.248l-.003-.015c0 .001.093-.187.098-.287.014-.231-.072-.03.054-.343-.235.158-.177.383-.688.424-.087.006-.08-.018-.09-.035-.074-.13-.132-.02-.25-.16-.101-.117-.014-.17.036-.229.13.556.654.094.794 0l-.298-.149c.24.161.246.078.447-.248.136.1.099-.003.099.248z"/><path id="_547120528" class="fil1" d="m9.256 6.396-.015.015c.001-.001.02-.01.015-.015zm.1-.05-.015.015s.02-.01.014-.015zm-.298-.149-.015.015s.02-.01.015-.015zm-.1-.05c.305.082.315.147.447.348-.166-.035-.289-.036-.506-.092-.306-.078-.343-.149-.685-.106v-.15l.744-.098c.02.057.001.013 0 .05v.049z"/><path id="_547173056" class="fil1" d="m9.157 7.24-.015.014c.001 0 .02-.01.015-.015zm-.744-.1-.015.015c.001-.001.02-.01.015-.015zm.694-.05-.015.015c.001 0 .02-.01.015-.015zm.199-.248-.015.015c.001 0 .02-.01.015-.015zm0-.099-.015.015c.001-.001.02-.01.015-.015zm0-.05.099.249h-.298c.09.27-.01-.05.068.086.13.223-.02-.011-.021.127 0 .04.113-.013-.096.233l-.15-.397c-.253.021-.077.035-.495.298l-.199-.149-.099.149c.004-.046-.045-.17.21-.286l.385-.111.348.198-.1-.297.248.099.298-.298c-.04.12.03.051-.198.1z"/><path id="_547169248" class="fil0" d="m4.494 10.365-.015.014s.02-.01.015-.014zm.198-.15-.015.016c.001-.001.02-.01.015-.015zm-.595.447.248-.248-.15.199h.398c-.084-.16-.065-.094-.128-.17l-.034-.044c-.003-.004-.006-.018-.009-.023l-.019-.042c-.029-.033-.071-.05-.108-.069l.05-.148a.053.053 0 0 1 .005.022l.11.157c.006.004.023.012.034.02.04.071.024.052.05.148.152-.112.08.032.096-.203l-.097.054c.046-.127.027-.054.05-.1l.05-.098.346.349-.297-.15.05.247-.1.149-.198.05c.104 0 .502-.003.589.028l.105.07c-.218-.004-.268-.052-.545-.05-.355.004-.223.046-.496-.098l.297-.05c-.243 0-.156-.058-.297 0zm.198-.347.05.05-.05-.05z"/><path id="_547168464" class="fil0" d="M7.42 14.036c-.212 0-.334-.034-.457-.138-.13-.11-.167-.261-.237-.408.105.05.045.037.198.05-.036-.032-.02-.03-.083-.065-.116-.063-.02-.012-.115-.035l-.05-.099c.25.058.476.104.546.298l-.298-.1c.24.207.29.085.447.298-.314-.073-.193-.034-.248 0 .38.125.255.082.298.199z"/><path id="_296693696" class="fil0" d="m5.982 12.15-.1-.099c.231.054.222.143.249-.099-.132.063-.053.045-.248.05l-.05-.05h.248v-.05h-.298l-.05-.099.496.059c.08.111.1.112.1.19H6.18v.05c.309.029.209.02.298.098l-.496-.05z"/><path id="_296692072" class="fil0" d="M5.783 8.43c-.11.076-.061.008-.099.149h.1v-.15zm.306-.405c.004.02-.04.018-.063.052-.004.006-.017.02-.021.028l-.073.176c.228.1-.171.04.14-.01l-.239.209v.396l-.355-.504c.068-.05.058-.09.157.108a.548.548 0 0 1 .076-.065c.269-.11.014.194.329-.44l.05.05z"/><path id="_296688768" class="fil0" d="M11.39 6.197c-.031-.047-.022-.014-.047-.103a3.435 3.435 0 0 1-.035-.166c-.037-.273.056-.098-.018-.276.237.125.199.217.248.645-.21-.079.08.076-.07-.03a.608.608 0 0 1-.079-.07z"/><path id="_296686976" class="fil0" d="M6.875 13.223c.012.049.123-.03 0-.03-.111 0-.004-.004-.001.026v.004zm-.199.069-.05-.05-.049-.1c.113.027.114.04.248.05l-.148-.103c-.175-.068-.032-.028-.1.004l-.099-.099c.248.02.353.104.546.149l-.1.149c.178.052.112.023.199.099l-.447-.1z"/><path id="_296685632" class="fil0" d="M11.736 10.86c-.004-.004-.013.015-.014.016l.014-.015zm.15 0h-.05l-.1.2.249.198c-.263 0-.074 0-.15-.05l-.346-.05c.226-.166.088-.185.189-.3.11-.126.012.145.207-.146l.05.05-.05.099z"/><path id="_296685240" class="fil1" d="M9.058 11.903c0 .16.165.353-.199.545 0-.368-.036-.236.15-.545h.049z"/><path id="_296683112" class="fil0" d="m11.24 5.007-.014.015c0-.001.02-.01.014-.015zm0 .347c-.014-.18-.061-.236-.099-.397h.149c.089.332.03-.117.199.447-.114-.027-.115-.039-.249-.05z"/><path id="_296682888" class="fil0" d="m10.943 4.411-.015.015c.001 0 .02-.01.015-.015zm.198.497-.248-.546c.311.165.221.233.397.496-.067.038-.055.027-.149.05z"/><path id="_296681656" class="fil0" d="m5.486 10.91-.1-.198-.198.1v-.348h.199c0 .386.075.155.099.446z"/><path id="_296681768" class="fil0" d="M12.233 11.406c-.005-.004-.014.014-.015.015l.015-.015zm.149.15c-.277-.024-.326-.1-.695-.1v-.1c.322.025.417.096.496 0l.199.2z"/><path id="_296679248" class="fil1" d="M12.183 8.678v.198l-.1.15-.098-.497c-.007-.003-.02-.013-.021-.007l.02-.191c.04.166.08.26.199.347z"/><path id="_296678968" class="fil0" d="M7.42 13.738h.15v-.05h-.15v.05zm.397.1c-.236 0-.155.05-.347.05l-.099-.249.397.05-.052.047c-.001.003-.01.017-.01.02 0 .052.082.032.111.032v.05z"/><path id="_296678408" class="fil0" d="M5.04 11.258c-.012-.006-.03-.026-.034-.016-.005.009-.027-.014-.033-.018-.089-.061-.034-.022-.082-.066h.744c-.322.227-.393.016-.596.1z"/><path id="_296677176" class="fil0" d="m5.387 11.506-.1-.1c.122 0 .28-.008.398 0 .209.015.102.05.297.05v.05h-.595z"/><path id="_296676000" class="fil0" d="m4.642 11.06-.099-.05h.545v-.05c-.275 0-.341-.033-.545-.05l-.099.1c-.167-.089-.092-.004-.198-.15.392 0 .582.05.942.05l-.546.15z"/><path id="_296675832" class="fil0" d="M12.382 11.704c.004.005.013-.014.014-.015l-.014.015zm0-.1.099.1c-.055.023-.525.015-.645-.149.093.006.499.072.545.05z"/><path id="_296673536" class="fil0" d="m6.13 12.448-.049-.099c.146.034.389.086.546.1l.099.247-.298-.099.15-.05v-.05c-.121-.022-.34-.1-.447-.049z"/><path id="_296674544" class="fil0" d="M13.026 12.647c.018.096.012.082.05.149-.29-.078-.04-.173-.298 0l-.055-.197-.292-.101c.376.098.261.04.298-.05.111.139.073.08 0 .15l.297.049z"/><path id="_296672752" class="fil1" d="M8.958 7.537c.071.009.092-.094.004-.08-.113.017-.03.077-.004.08zm.15-.1-.249.2-.248-.1c.294 0 .127-.243.496-.1z"/><path id="_296673032" class="fil0" d="M13.126 12.994v.198h-.15l-.148-.05v.1h-.05c.041-.193.041-.055 0-.248l.05.1.298-.1z"/><path id="_296671296" class="fil0" d="M5.734 11.258c-.013-.013-.015.053-.015.014 0-.007.02-.01.015-.014zm-.546.099-.05-.05h.447c.106-.077.065-.003.1-.149.152.112.08-.031.098.199h-.595z"/><path id="_296670400" class="fil0" d="m5.883 9.075.05.298h-.15c-.014-.177.007-.112-.107-.306.138-.1.07.053.123.069.145.042-.084.115.084-.061z"/><path id="_296669392" class="fil0" d="m5.982 5.453-.015.015c.001 0 .02-.01.015-.015zm.1-.05-.016.016c.001-.001.02-.01.015-.015zm.049.1c-.093.08.002.046-.248 0 .05-.141.085-.131.297-.298-.042.16-.12.17-.05.298z"/><path id="_296667880" class="fil0" d="M12.48 11.754h.1c.013.153 0 .094.05.198-.106-.077-.065-.004-.1-.149l-.1.079a.634.634 0 0 1-.144-.026c-.157-.04-.145-.053-.351-.053.529-.128.419.102.546-.05z"/><path id="_296667040" class="fil0" d="m6.478 8.777-.05.05s-.073-.074-.08-.161c-.005-.065.009-.08.046-.2.049-.159-.042.103.233-.235-.056.241-.088.159-.165.311l-.009.025-.016.05c-.016.048-.006-.06-.02.05-.02.14.017.078.061.11z"/><path id="_296666088" class="fil0" d="m6.33 12.746-.15-.149c.195.093.438.068.645.248l-.496-.1z"/><path id="_296665024" class="fil1" d="M4.543 11.01h-.099l.1-.1c.203.017.27.05.545.05v.05h-.546z"/><path id="_296664912" class="fil0" d="M11.489 10.464c-.007.003-.02-.002-.022.006-.003.008-.02.004-.024.004-.23.02-.157-.043-.351.387.014-.04.144-.173-.009-.405.031-.023.069-.06.078-.034l.13-.002c.087.002.149-.01.198.044z"/><path id="_296663008" class="fil1" d="m11.19 7.487-.014.015s.02-.01.015-.015zm.1.05-.12.061c-.06-.009-.019.157-.096-.087-.045-.141.052-.14.166-.173-.046.219-.103.089.05.199z"/><path id="_296663624" class="fil0" d="m6.031 12.3-.05-.1c.284 0 .391.1.596.1v.049c-.322-.059-.213-.05-.546-.05z"/><path id="_296661440" class="fil1" d="m5.833 11.952-.05-.05h.298v.05h-.248zm.05.1v-.05c.195-.005.116.013.248-.05-.027.242-.018.153-.248.1z"/><path id="_296662392" class="fil0" d="M5.932 9.273c.082-.35.241-.382.348-.446-.072.267-.038.045-.179.218-.118.147.003.103-.169.228z"/><path id="_296725616" class="fil0" d="m6.23 4.908-.015.014c.001 0 .02-.01.015-.014zm.256-.257c.004.02-.032.02-.067.049-.236.19-.148.17-.165.294l-.123.162c.076-.326-.098-.115.306-.554l.05.05z"/><path id="_296723824" class="fil0" d="m6.428 12.895-.05-.1c.19.016.36.08.497.199l-.447-.1z"/><path id="_296724944" class="fil0" d="M6.23 11.406c-.33-.027-.304-.034-.347-.198.18.09.123.08.347.1v.098z"/><path id="_296722088" class="fil0" d="M12.828 12.399c-.178-.019-.156-.04-.319-.079-.254-.06-.15.054-.276-.12.24.06.461.083.595.199z"/><path id="_296722312" class="fil0" d="M12.58 12.2c-.164-.013-.298-.064-.447-.099.244-.072.125-.007.447 0v.1z"/><path id="_296720576" class="fil0" d="m7.23 8.62-.057.207c-.116-.013.01.018-.086-.018l-.035-.012-.028-.014-.098-.053.304-.11z"/><path id="_296719960" class="fil0" d="m5.585 11.655-.1-.1c.29 0 .367-.003.596.05-.32.101-.369-.103-.496.05z"/><path id="_296719232" class="fil1" d="M7.875 12.853c-.206-.388-.28-.372-.215-.463l.265.414-.05.05z"/><path id="_296718224" class="fil0" d="m8.016 13.837-.05.05c-.038-.092.008-.065-.063-.143l-.055-.047c-.052-.059-.025-.066.01-.116l.153.135a.294.294 0 0 1 .005.019c.09.375-.081-.127 0 .102z"/><path id="_296716600" class="fil0" d="M5.138 7.636c-.146.04-.08.02-.198.1-.045-.091-.038-.063-.05-.199.155.071.23-.037.248.1z"/><path id="_296717328" class="fil0" d="m12.431 13.341-.1.05c-.143-.092-.162-.011-.346-.1a.585.585 0 0 1 .446.05z"/><path id="_296715648" class="fil0" d="M11.736 10.513c-.004.198.033.197-.148.249-.027-.062-.074.02.1-.199l-.15-.1c.1.05.055.036.198.05z"/><path id="_296715144" class="fil0" d="m6.577 12.15-.008-.019c-.064-.123-.06-.069-.14-.179.156.027.12.008.232.065.007.004.027.027.032.018.005-.01.021.012.033.016l-.149.1z"/><path id="_296713576" class="fil0" d="m5.188 9.323-.05.05-.247-.15c.05-.029-.006-.026.081-.033.133-.01.111.07.216.133z"/><path id="_296713912" class="fil0" d="M12.282 13.242c-.232-.111-.206.044-.347-.149a.916.916 0 0 1 .214.034c.193.064.07-.041.133.115z"/><path id="_296711672" class="fil0" d="M5.04 8.876c-.136-.099-.05-.08-.158-.256.04-.028.074-.102.136.08.031.091.019.077.021.176z"/><path id="_296711840" class="fil0" d="M11.985 10.712c.01-.118 0-.068.026-.172l.023-.077c.027-.074.025-.06.05-.098.036.169.05.237-.1.347z"/><path id="_296700808" class="fil0" d="M7.024 12.696h-.199v-.05c.235 0 .197-.042.248.15h-.198v-.05h.149v-.05z"/><path id="_296699240" class="fil0" d="M6.379 11.506c-.266.042-.223.058-.348-.05h.348v.05z"/><path id="_545759200" class="fil0" d="M6.428 5.553c-.112-.038-.038.024-.072-.04 0-.001-.01-.089-.006-.105.022-.097.065-.111.128-.153-.027.117-.046.146-.05.298z"/><path id="_545760152" class="fil0" d="M4.99 8.53c-.063-.153-.006-.152.08-.31l.019-.038c.06.143.046.034-.065.262l-.034.085z"/><path id="_545758024" class="fil0" d="m12.729 13.242-.1.05c-.113-.073-.112-.05-.297-.05.14-.058.136-.077.291-.045.101.02.052.011.106.045z"/><path id="_545756960" class="fil0" d="M12.48 12.002c-.196-.013-.28 0-.396-.1l.397.05v.05z"/><path id="_545755336" class="fil1" d="M7.817 6.495c-.074-.084.051-.165.199-.248-.069.258-.048.042-.199.248z"/><path id="_545755896" class="fil0" d="m6.13 6.346.05-.297c.122.14.09.137-.05.297z"/><path id="_545754216" class="fil0" d="m5.841 5.346-.107.107-.025.025-.074.075c.033-.142.037-.15.157-.257l.05.05z"/><path id="_545754776" class="fil0" d="m5.287 9.075-.05.05c-.008.008-.021-.033-.025-.024l-.181-.134c.046-.033.072-.065.084-.018.006.02.047.04.054.046.055.041.074.05.118.08z"/><path id="_545751808" class="fil0" d="m6.18 12.547-.05-.05h.249v.1z"/><path id="_545816544" class="fil1" d="m4.742 6.743.05-.099.123-.1.033.108c-.142.102-.005-.044-.206.091z"/><path id="_545814696" class="fil1" d="M6.875 10.513v-.248h.05c0 .254.128.19-.05.248z"/><path id="_545815592" class="fil1" d="M11.836 12.101c-.139.192.023.05-.248.05v-.05h.248z"/><path id="_545812680" class="fil1" d="M10.695 10.067c-.033-.038-.033-.014-.065-.084-.047-.1-.013-.023-.034-.114h.099v.198z"/><path id="_545813296" class="fil0" d="M5.535 8.678c-.033-.038-.033-.014-.065-.084-.046-.1-.013-.023-.034-.114h.1v.198z"/><path id="_545810832" class="fil0" d="M5.635 5.85c.11-.164.083-.128.248-.248-.038.056-.056.089-.105.143-.067.076-.032.065-.143.105z"/><path id="_545812064" class="fil1" d="M11.141 12.399c-.197-.017-.161-.02-.248-.15l.197.102c.006.004.021.032.025.024.005-.009.017.016.026.024z"/><path id="_545810104" class="fil0" d="M11.39 9.57h-.05l.05-.297c.06.11 0 .13 0 .298z"/><path id="_545808704" class="fil1" d="M10.447 12.994c-.003-.005-.052.05-.1-.149h.1v.149z"/><path id="_545808368" class="fil0" d="M8.611 11.159c-.002-.006-.051.05-.1-.15h.1v.15z"/><path id="_545806128" class="fil1" d="M8.71 11.903c.038-.141-.01-.073.1-.15v.15h-.1z"/><path id="_545805792" class="fil0" d="M6.031 11.803v-.099c.14.041.071-.013.15.1h-.15z"/><path id="_545803216" class="fil0" d="M8.462 13.39c-.036.032-.02.031-.083.066-.116.063-.02.012-.115.034.111-.152-.032-.08.198-.1z"/><path id="_545804392" class="fil0" d="M11.29 5.553c-.05-.055-.05.086-.05-.15l.107.053-.057.097zm.1 0-.016.014c.001 0 .01-.02.015-.014z"/><path id="_545803104" class="fil1" d="m10.248 12.597.119-.048.138.106z"/><path id="_545802712" class="fil1" d="M10.623 12.803c.033-.048.022-.026.022-.107h.05c0 .116-.015.129-.05.199l-.038-.075a.329.329 0 0 0 .016-.017z"/><path id="_545799800" class="fil1" d="M10.943 12.597c-.072 0-.031-.003-.09.01l-.067-.117.157.057v.05z"/><path id="_141197968" class="fil0" d="m6.528 9.72-.015.015c0-.001.02-.01.015-.015zm0 0c.022.022.116-.005 0 .06-.048.028-.122.01-.061-.061.077-.092.027-.033.06 0z"/><path id="_141231512" class="fil0" d="M12.431 13.093h-.149c.112-.154.038-.154.15 0z"/><path id="_547611616" class="fil0" d="M5.695 10.95c-.16-.03-.12.01-.149-.15l.149.15z"/><path id="_695744960" class="fil1" d="M7.382 4.62c.029-.16-.012-.119.148-.148l-.148.149z"/><path id="_544098456" class="fil0" d="M12.729 12.746c-.078.106-.004.064-.15.1.075-.108.008-.066.15-.1z"/><path id="_541719648" class="fil0" d="M5.089 10.166c-.01.057-.11.109-.067.01.018-.041.09-.139.067-.01z"/><path id="_540977536" class="fil0" d="M12.778 12.845c-.067.128.059.094-.149.15l.15-.15z"/><path id="_141198472" class="fil0" d="M5.585 9.174c.026.138-.118-.024-.05-.02.094.006.031-.082.05.02z"/><path id="_306101072" class="fil1" d="M10.05 9.869c.02.106-.071.033-.067-.01l.018-.01c.092.006.03-.083.049.02z"/><path id="_141230560" class="fil1" d="M10.744 10.166c-.002.017-.054.011-.059.01-.012-.005-.086.114-.021-.014l.026-.011c.038-.001.067-.087.054.015z"/><path id="_547611672" class="fil1" d="M10.149 9.77 10 9.62c.162.171.072-.083.149.15z"/><path id="_547617104" class="fil0" d="M6.28 11.704c.07.002.066-.002.135.013.008.002.028.027.034.017.005-.01.019.013.029.02l-.198-.05z"/><path id="_547616544" class="fil0" d="M6.627 12.3c.104.002.121-.001.198.049l-.198-.05z"/><path id="_547615144" class="fil0" d="M7.073 13.044c.086 0 .1-.009.181.017.135.043.088.057.117.082l-.347-.199.05.05v.05z"/><path id="_547615032" class="fil0" d="M6.13 6.446c.065.064-.063.033-.013-.002 0 0 .01-.002.014.002z"/><path id="_547614584" class="fil0" d="M7.57 13.39c-.045.04 0 .009-.083.067-.006.004-.028.026-.033.017-.004-.01-.022.01-.033.016l.148-.1z"/><path id="_547612736" class="fil0" d="M11.042 12.895c-.044.038.001.008-.083.066l.083-.066z"/><path id="_547612288" class="fil0" d="M8.768 10.555c0 .017-.023.023-.026.04l.026-.04z"/><path id="_544285944" style="fill:#000" d="m9.394 8.688-.039.04z"/><path id="_544116768" class="fil0" d="M6.924 12.399"/></g></g></svg>