<svg xmlns="http://www.w3.org/2000/svg" xml:space="preserve" width="100" height="100" style="shape-rendering:geometricPrecision;text-rendering:geometricPrecision;image-rendering:optimizeQuality;fill-rule:evenodd;clip-rule:evenodd" viewBox="0 0 27.737 27.754"><circle cx="13.86" cy="13.877" r="13.739" style="fill:none;stroke:#5b5b5b;stroke-width:.274891;stroke-dasharray:1.70095 1.70095"/><path d="M12.433 9.09c-.135 0-.184-.011-.29-.022-.395-.038-.256-.049-.594.285 0 .214.096.37.291.402.407.066.806.048 1.215.028-.008.087-.05.15-.075.236-.084.27-.117.586-.117.864 0 .277.074.584.125.83l.425.556.383-.358c0-.102-.103-.312-.134-.488l-.082-.54c-.04-.533.185-1.008.508-1.357l.164-.17c.003-.004.008-.01.012-.012l.012-.012c.15-.143.281-.285.444-.416.123-.1.225-.174.353-.27l.539-.703c.13-.084 1.023-.182 1.219-.191.644-.03 1.476.21 1.989.521.262.158.514.318.73.536.429.434.794.938.948 1.563.115.467.25.463.564.702l.86 1.674c.06.244-.122.806-.199.972-.109.236-.266.427-.422.629l-.621-.43c-.056-.037-.167-.101-.21-.15-.06-.067-.076-.152-.111-.247-.103-.27-.247-.452-.346-.73-.12-.337-.29-.66-.352-1.058-.105-.67-.04-.857-.464-.97l-.358.358c0 .123.169.971.196 1.07.086.316.215.63.33.938l-1.482-.287c-.223-.021-.603.036-.837.048-.425.022-.355.01-.55.358l.311.359c.223 0 .991-.056 1.098-.047.124.011.204.02.361.022.708.007 1.58.585 2.084 1 .418.342.511.376.903.65v.335c0 .741-.486 1.396-1.029 1.744-.256.164-.334.15-.505.426a1.692 1.692 0 0 1-.43.48c-.598.448-.605.057-.84 1.478l-.064.413a5.441 5.441 0 0 1-.556-.448c-.036-.033-.048-.05-.086-.081l-.178-.157c-.044-.037-.05-.033-.094-.073l-.514-.49c-.355-.355-.407-.266-.948-.39l-.947-.416c.23-.344 1.11-1.029 1.439-1.239.24-.153.596-.37.931-.407.135-.014.194-.023.29-.012.088.011.237.036.303.033l.336-.36c0-.171-.093-.287-.217-.332-.696-.179-1.318.047-1.837.358a6.018 6.018 0 0 0-1.047.77c-.054.05-.066.052-.119.096a6.044 6.044 0 0 0-.784.818c-.074.09-.496.272-.606.302-.274.074-.692.14-.983.14-.466 0-.83-.147-1.204-.35-.066-.036-.09-.047-.149-.09-.106-.078-.43-.325-.458-.426-.07-.25-.003-.99-.034-1.306-.016-.151.014-.22.027-.386.057-.681.084-.803.647-1.146.051-.03.08-.05.14-.075.228-.092.2-.156.313-.38l-.334-.358c-.303 0-.699.325-.903.507-.217.194-.217.221-.388.472-.052-.013-.436-.33-.52-.387a4.523 4.523 0 0 0-1.252-.566l-.762-.146-.358.359c0 .147.094.28.218.332.136.055.503.057.77.162.56.221 1.602.62 1.66 1.328l.029 1.476c-.947.501-2.143.34-2.86-.27-.26-.22-.307-.212-.554-.38a2.112 2.112 0 0 1-.5-.455l-.508-1.38c-.056-.32.24-.903.24-1.1a.723.723 0 0 0-.059-.277 3.149 3.149 0 0 1-.181-.87c0-.324.111-.702.223-.925.245-.491.672-.906 1.184-1.111.278-.112.53-.19.656-.49.115-.278.19-.529.382-.766a2.482 2.482 0 0 1 1.405-.89c.726-.16 1.09.062 1.39-.164.065-.05.152-.15.216-.214.165-.165.257-.265.462-.398l1.325-.42c.435-.068 1.185.165 1.506.405l.31.264c-.045.067-.042.055-.109.106-.13.099-.231.231-.35.342-.16.148-.339.287-.491.442-.244.246-.208.253-.61.322a4.962 4.962 0 0 1-.854.078zm-2.151-1.553c-1.382 0-2.668.836-3.056 2.06-.062.195-.03.08-.378.242-.153.071-.287.146-.415.231-.447.295-1.006.894-1.15 1.383l-.212 1.103c0 .502.223 1.03.224 1.08 0 .046-.126.384-.153.497l-.07.646c0 1.218.757 2.092 1.576 2.559.169.096.554.467.82.565l1.5.366c.318.038.976-.132 1.29-.264.128-.054.102-.046.218-.004.263.094.072.006.387.26.162.132.595.392.791.452l1.042.225c.37.04.948-.057 1.277-.18.468-.176.431-.261.804-.036.448.271.923.438 1.44.519.155.024.095.005.19.097l.287.263c.317.318 1.228 1.07 1.527 1.294l.314.235c.153.116.192.16.352.222 0-.169.063-.423.094-.575l.312-1.743c.335-.078.821-.56 1.02-.893.098-.166.56-.297 1.022-.89.12-.153.21-.282.308-.456l.327-1.203c.06-.443-.144-.788-.007-.939a2.38 2.38 0 0 0 .326-.464l.35-1.25c.057-.412-.126-1.061-.286-1.387a3.254 3.254 0 0 0-.273-.444 3.014 3.014 0 0 0-.524-.552c-.414-.35-.26-.054-.45-.626-.167-.506-.451-.953-.792-1.358a3.429 3.429 0 0 0-.45-.434c-.178-.144-.567-.452-.746-.522l-2.287-.581c-.363-.046-1.106.151-1.458.239-.127-.086-.213-.183-.42-.32a2.55 2.55 0 0 0-.478-.264l-1.206-.277c-.69-.078-1.566.25-2.08.622a2.524 2.524 0 0 0-.494.461c-.101.116-.22.04-.413.04z" style="fill:#5b5b5b"/></svg>