<svg xmlns="http://www.w3.org/2000/svg" xml:space="preserve" width="100" height="100" style="shape-rendering:geometricPrecision;text-rendering:geometricPrecision;image-rendering:optimizeQuality;fill-rule:evenodd;clip-rule:evenodd" viewBox="0 0 16.694 16.704"><defs><style>.str1,.str2,.str3{stroke:#5b5b5b;stroke-width:.165448}.str2,.str3{stroke-linecap:round}.str2{stroke-width:.390669}.fil0{fill:none}.fil1{fill:#5b5b5b}</style></defs><g id="Vrstva_x0020_1"><circle class="fil0" cx="8.342" cy="8.352" r="8.269" style="stroke:#5b5b5b;stroke-width:.165448;stroke-dasharray:1.023749 1.023749"/><g id="_118209040"><ellipse id="_377013584" class="fil0 str1" transform="matrix(.69928 .7786 -.6308 .72768 4.307 9.627)" rx="1.576" ry="1.085"/><ellipse id="_377147096" class="fil1 str1" transform="matrix(.73278 .66005 -.58588 .70835 4.364 10.109)" rx="1.137" ry=".801"/><g><ellipse id="_118207696" class="fil0 str1" transform="matrix(-.84027 -.60813 -.59764 .75756 7.57 12.566)" rx="1.576" ry="1.085"/><ellipse id="_118206688" class="fil1 str1" transform="matrix(-.73278 -.66005 -.58588 .70835 7.105 12.577)" rx="1.137" ry=".801"/></g></g><g id="_376511320"><path id="_384858024" class="fil0 str2" d="M4.084 4.983s3.22-.356 5.398-2.615"/><path id="_386810176" class="fil0 str2" d="M4.648 4.886s4.057 3.379 4.28-2"/><path id="_386785928" class="fil0 str2" d="M3.688 3.82s1.006.912.02 2.404"/><path id="_376946888" class="fil0 str2" d="M8.902 1.404s.16 1.349 1.948 1.407"/></g><g id="_376949408"><path id="_384903552" class="fil0 str2" d="M11.832 7.431s-1.44-1.415-2.387-.202c-.946 1.214.495 2.274 1.297 2.694.802.42 1.18-.084 1.206.854"/><path id="_377111144" class="fil0 str2" d="M11.476 8.212s-2.302-.301-.1.91"/><g><path id="_384767936" class="fil0 str3" d="M12.557 9.593s.88-.864 1.457-.124c.577.74-.302 1.388-.792 1.644-.49.256-.72-.051-.736.521"/><path id="_384767376" class="fil0 str3" d="M12.775 10.07s1.404-.185.061.554"/></g></g></g></svg>