<svg xmlns="http://www.w3.org/2000/svg" xml:space="preserve" width="100" height="100" style="shape-rendering:geometricPrecision;text-rendering:geometricPrecision;image-rendering:optimizeQuality;fill-rule:evenodd;clip-rule:evenodd" viewBox="0 0 11.416 11.423"><path d="M5.705 9.172a3.457 3.457 0 0 1-3.454-3.46c0-1.911 1.546-3.46 3.454-3.46a3.457 3.457 0 0 1 3.453 3.46c0 1.91-1.546 3.46-3.453 3.46zm2.412-5.455s.233.068.343.043c-.848-1.184-2.086-1.336-2.086-1.336s.42.297.492.509c0 0 .521.17 1.25.784zm-5.37 3.586a2.14 2.14 0 0 1-.292-.793l.11.064.182.73zm-.106-.784s.242-.61.492-.848l1.378.593s.238.658.637 1.391c0 0-.106.361-.764.857 0 0-.598-.203-1.128-.483 0 0-.48-.586-.615-1.51zM5.22 7.744s1.404-.19 1.645-.237c0 0 .688.657.755.674 0 0 .034.098-.453.56 0 0-1.141.513-1.968.267 0 0-.675-.42-.662-.453 0 0 .64-.7.683-.81zm2.036-1.82 1.064-.686s.36.305.598.662c0 0-.004.564-.14 1.23 0 0-.547.911-1.094 1 0 0-.564-.47-.76-.678 0 0 .272-1.37.332-1.527zm-4.08-1.691s.22-.403 1.15-1.065c0 0 .207-.05 1.25.314 0 0 .284 1.527.25 1.612 0 0-1.212 1.06-1.297 1.068l-1.37-.585s-.098-.712.017-1.344zm2.51-.772s.963-.454 1.118-.473c0 0 .255-.032 1.277.795 0 0 .214.844.193 1.387 0 0-.95.708-1.06.662 0 0-1.21-.73-1.294-.755 0 0-.246-1.527-.234-1.616zm-3.028.85c.586-1.378 2.078-1.824 2.078-1.824s-.318.48-.352.547c0 0-.911.645-1.255 1.12-.233.064-.47.157-.47.157z" style="fill:#5b5b5b"/><circle cx="5.705" cy="5.712" r="5.655" style="fill:none;stroke:#5b5b5b;stroke-width:.113145;stroke-dasharray:.700107 .700107"/></svg>