<svg xmlns="http://www.w3.org/2000/svg" xml:space="preserve" width="100" height="100" style="shape-rendering:geometricPrecision;text-rendering:geometricPrecision;image-rendering:optimizeQuality;fill-rule:evenodd;clip-rule:evenodd" viewBox="0 0 291.922 292.096"><path d="M118.196 181.545v56.394H147.695V177.21h9.543v60.73h6.52v-56.395c0-9.977-7.592-22.991-7.592-22.991h-30.377s-7.593 13.014-7.593 22.991zm38.827-30.476h-31.668c-15.934-21.683-19.855-45.371-7.16-58.143 21.503-21.625 16.055-38.595 16.055-38.595s47.066-5.854 46.847 50.322c0 0-.649 31.452-24.074 46.416zm2.832-8.805c22.233-31.343 11.104-54.475 11.104-54.475s-2.169 42.946-19.087 56.07l8.136-1.626c.048-.01-.18.072-.153.03z" style="fill:#5b5b5b"/><circle cx="145.874" cy="146.048" r="144.6" style="fill:none;stroke:#5b5b5b;stroke-width:2.89315;stroke-dasharray:17.902036 17.902036"/></svg>