<svg xmlns="http://www.w3.org/2000/svg" xml:space="preserve" width="100" height="100" style="shape-rendering:geometricPrecision;text-rendering:geometricPrecision;image-rendering:optimizeQuality;fill-rule:evenodd;clip-rule:evenodd" viewBox="0 0 22.333 22.346"><path d="m6.891 12.976-.284.355.64.853-.711.569v.284c.277.065.432.186.686.31.558.27.998.307 2.107.877l1.501.489c.79.161.65.102.823 1.167-.263-.139-1.877-.668-2.396-.874-.398-.157-.796-.292-1.201-.433-.734-.254-.476-.133-1.155-.532l-.152.204c.09.337.288.308.615.451.285.125.534.222.807.331l3.19 1.22c.448.159.623.14 1.257-.681.415-.538 2.647-2.726 3.207-3.403.31-.374 1.13-.975 1.017-1.542l-.356-.853.569-.427c0-2.176.218-1.799-1.635-2.843 0-.985-.045-.841-.71-1.35 0-.28.284-.753.284-2.417 0-.553-1.96-.438-2.762-.508L9.095 4.02c-.412.779-1.338 2.505-1.656 3.25-.69 1.617-.843 1.454-2.183 2.72.264.394 1.985.863 2.515 1.04l2.674.95v.57c-.393-.092-2.067-.678-2.568-.844-1.067-.355-1.45-.589-2.55-.791.12.444 1.57.798 2.011.974l2.177.809c.547.222.437.547.503 1.557-.254-.068-.658-.423-.893-.599l-.853-.64a21.92 21.92 0 0 0-1.807-1.248l.07.995c.738.171 1.509.689 2.145 1.078l-.083.059c-.012.012-.038-.04-.045-.026l-1.359-.49c-.239-.105-.295-.082-.302-.408zm.427.853c.05-.056.091-.105.111-.04.016.05.499.227.668.326 1.149.67 1.147.815 1.495 1.775-.226-.152-.341-.335-.558-.508a5.277 5.277 0 0 1-.561-.505c-.19-.19-.339-.354-.533-.534-.08-.074-.612-.495-.622-.514zm.07-4.976 5.758.498v1.137c-.411 0-1.01-.117-1.424-.14L7.39 9.991V8.853z" style="fill:#5b5b5b"/><circle cx="11.16" cy="11.173" r="11.062" style="fill:none;stroke:#5b5b5b;stroke-width:.221334;stroke-dasharray:1.369552 1.369552"/></svg>